<?xml version="1.0" encoding="UTF-8"?>
<svg xmlns="http://www.w3.org/2000/svg" xmlns:xlink="http://www.w3.org/1999/xlink" width="4446" height="2501" viewBox="0 0 4446 2501">
<path fill-rule="evenodd" fill="rgb(100%, 100%, 100%)" fill-opacity="1" d="M 0.820312 0.160156 L 4445.261719 0.160156 L 4445.261719 2500.160156 L 0.820312 2500.160156 L 0.820312 0.160156 "/>
<path fill-rule="nonzero" fill="rgb(80.076599%, 80.076599%, 80.076599%)" fill-opacity="1" d="M 4.207031 0.160156 L 4.207031 91.480469 L 0.820312 93.441406 L 0.820312 0.160156 L 4.207031 0.160156 "/>
<path fill-rule="nonzero" fill="rgb(80.076599%, 80.076599%, 80.076599%)" fill-opacity="1" d="M 216.210938 0.160156 L 216.210938 213.878906 C 144.414062 255.328125 72.617188 296.78125 0.820312 338.238281 L 0.820312 321.679688 L 201.8125 205.640625 L 201.8125 0.160156 L 216.210938 0.160156 "/>
<path fill-rule="nonzero" fill="rgb(80.076599%, 80.076599%, 80.076599%)" fill-opacity="1" d="M 428.214844 0.160156 L 428.214844 91.480469 C 355.144531 133.660156 282.078125 175.851562 209.011719 218.039062 C 139.617188 177.96875 70.21875 137.898438 0.820312 97.839844 L 0.820312 0.160156 L 4.207031 0.160156 L 4.207031 83.238281 L 209.011719 201.480469 L 413.816406 83.238281 L 413.816406 0.160156 L 428.214844 0.160156 "/>
<path fill-rule="nonzero" fill="rgb(80.076599%, 80.076599%, 80.076599%)" fill-opacity="1" d="M 640.21875 0.160156 L 640.21875 213.878906 C 567.148438 256.058594 494.082031 298.25 421.015625 340.441406 C 347.949219 298.25 274.882812 256.058594 201.8125 213.878906 L 201.8125 0.160156 L 216.210938 0.160156 L 216.210938 205.640625 L 421.015625 323.878906 L 625.816406 205.640625 L 625.816406 0.160156 L 640.21875 0.160156 "/>
<path fill-rule="nonzero" fill="rgb(80.076599%, 80.076599%, 80.076599%)" fill-opacity="1" d="M 852.222656 0.160156 L 852.222656 91.480469 C 779.152344 133.660156 706.085938 175.851562 633.019531 218.039062 C 559.953125 175.851562 486.882812 133.660156 413.816406 91.480469 L 413.816406 0.160156 L 428.214844 0.160156 L 428.214844 83.238281 L 633.019531 201.480469 L 837.820312 83.238281 L 837.820312 0.160156 L 852.222656 0.160156 "/>
<path fill-rule="nonzero" fill="rgb(80.076599%, 80.076599%, 80.076599%)" fill-opacity="1" d="M 1064.21875 0.160156 L 1064.21875 213.878906 C 991.15625 256.058594 918.085938 298.25 845.019531 340.441406 C 771.957031 298.25 698.886719 256.058594 625.816406 213.878906 L 625.816406 0.160156 L 640.21875 0.160156 L 640.21875 205.640625 L 845.019531 323.878906 L 1049.820312 205.640625 L 1049.820312 0.160156 L 1064.21875 0.160156 "/>
<path fill-rule="nonzero" fill="rgb(80.076599%, 80.076599%, 80.076599%)" fill-opacity="1" d="M 1276.230469 0.160156 L 1276.230469 91.480469 C 1203.160156 133.660156 1130.089844 175.851562 1057.019531 218.039062 C 983.960938 175.851562 910.890625 133.660156 837.820312 91.480469 L 837.820312 0.160156 L 852.222656 0.160156 L 852.222656 83.238281 L 1057.019531 201.480469 L 1261.828125 83.238281 L 1261.828125 0.160156 L 1276.230469 0.160156 "/>
<path fill-rule="nonzero" fill="rgb(80.076599%, 80.076599%, 80.076599%)" fill-opacity="1" d="M 1488.230469 0.160156 L 1488.230469 213.878906 C 1415.160156 256.058594 1342.089844 298.25 1269.03125 340.441406 C 1195.960938 298.25 1122.890625 256.058594 1049.820312 213.878906 L 1049.820312 0.160156 L 1064.21875 0.160156 L 1064.21875 205.640625 L 1269.03125 323.878906 L 1473.828125 205.640625 L 1473.828125 0.160156 L 1488.230469 0.160156 "/>
<path fill-rule="nonzero" fill="rgb(80.076599%, 80.076599%, 80.076599%)" fill-opacity="1" d="M 1700.230469 0.160156 L 1700.230469 91.480469 C 1627.171875 133.660156 1554.101562 175.851562 1481.03125 218.039062 C 1407.96875 175.851562 1334.898438 133.660156 1261.828125 91.480469 L 1261.828125 0.160156 L 1276.230469 0.160156 L 1276.230469 83.238281 L 1481.03125 201.480469 L 1685.828125 83.238281 L 1685.828125 0.160156 L 1700.230469 0.160156 "/>
<path fill-rule="nonzero" fill="rgb(80.076599%, 80.076599%, 80.076599%)" fill-opacity="1" d="M 1912.238281 0.160156 L 1912.238281 213.878906 C 1839.171875 256.058594 1766.101562 298.25 1693.03125 340.441406 C 1619.96875 298.25 1546.898438 256.058594 1473.828125 213.878906 L 1473.828125 0.160156 L 1488.230469 0.160156 L 1488.230469 205.640625 L 1693.03125 323.878906 L 1897.839844 205.640625 L 1897.839844 0.160156 L 1912.238281 0.160156 "/>
<path fill-rule="nonzero" fill="rgb(80.076599%, 80.076599%, 80.076599%)" fill-opacity="1" d="M 2124.238281 0.160156 L 2124.238281 91.480469 C 2051.171875 133.660156 1978.101562 175.851562 1905.039062 218.039062 C 1831.96875 175.851562 1758.898438 133.660156 1685.828125 91.480469 L 1685.828125 0.160156 L 1700.230469 0.160156 L 1700.230469 83.238281 L 1905.039062 201.480469 L 2109.839844 83.238281 L 2109.839844 0.160156 L 2124.238281 0.160156 "/>
<path fill-rule="nonzero" fill="rgb(80.076599%, 80.076599%, 80.076599%)" fill-opacity="1" d="M 2336.238281 0.160156 L 2336.238281 213.878906 C 2263.171875 256.058594 2190.101562 298.25 2117.039062 340.441406 L 1897.839844 213.878906 L 1897.839844 0.160156 L 1912.238281 0.160156 L 1912.238281 205.640625 L 2117.039062 323.878906 L 2321.839844 205.640625 L 2321.839844 0.160156 L 2336.238281 0.160156 "/>
<path fill-rule="nonzero" fill="rgb(80.076599%, 80.076599%, 80.076599%)" fill-opacity="1" d="M 2548.25 0.160156 L 2548.25 91.480469 C 2475.179688 133.660156 2402.109375 175.851562 2329.039062 218.039062 C 2255.980469 175.851562 2182.910156 133.660156 2109.839844 91.480469 L 2109.839844 0.160156 L 2124.238281 0.160156 L 2124.238281 83.238281 L 2329.039062 201.480469 L 2533.851562 83.238281 L 2533.851562 0.160156 L 2548.25 0.160156 "/>
<path fill-rule="nonzero" fill="rgb(80.076599%, 80.076599%, 80.076599%)" fill-opacity="1" d="M 2760.25 0.160156 L 2760.25 213.878906 C 2687.179688 256.058594 2614.109375 298.25 2541.050781 340.441406 C 2467.980469 298.25 2394.910156 256.058594 2321.839844 213.878906 L 2321.839844 0.160156 L 2336.238281 0.160156 L 2336.238281 205.640625 L 2541.050781 323.878906 L 2745.851562 205.640625 L 2745.851562 0.160156 L 2760.25 0.160156 "/>
<path fill-rule="nonzero" fill="rgb(80.076599%, 80.076599%, 80.076599%)" fill-opacity="1" d="M 2972.25 0.160156 L 2972.25 91.480469 C 2899.179688 133.660156 2826.121094 175.851562 2753.050781 218.039062 C 2679.980469 175.851562 2606.921875 133.660156 2533.851562 91.480469 L 2533.851562 0.160156 L 2548.25 0.160156 L 2548.25 83.238281 L 2753.050781 201.480469 L 2957.851562 83.238281 L 2957.851562 0.160156 L 2972.25 0.160156 "/>
<path fill-rule="nonzero" fill="rgb(80.076599%, 80.076599%, 80.076599%)" fill-opacity="1" d="M 3184.261719 0.160156 L 3184.261719 213.878906 C 3111.191406 256.058594 3038.121094 298.25 2965.050781 340.441406 C 2891.988281 298.25 2818.921875 256.058594 2745.851562 213.878906 L 2745.851562 0.160156 L 2760.25 0.160156 L 2760.25 205.640625 L 2965.050781 323.878906 L 3169.859375 205.640625 L 3169.859375 0.160156 L 3184.261719 0.160156 "/>
<path fill-rule="nonzero" fill="rgb(80.076599%, 80.076599%, 80.076599%)" fill-opacity="1" d="M 3396.261719 0.160156 L 3396.261719 91.480469 C 3323.191406 133.660156 3250.121094 175.851562 3177.058594 218.039062 C 3103.988281 175.851562 3030.921875 133.660156 2957.851562 91.480469 L 2957.851562 0.160156 L 2972.25 0.160156 L 2972.25 83.238281 L 3177.058594 201.480469 L 3381.859375 83.238281 L 3381.859375 0.160156 L 3396.261719 0.160156 "/>
<path fill-rule="nonzero" fill="rgb(80.076599%, 80.076599%, 80.076599%)" fill-opacity="1" d="M 3608.261719 0.160156 L 3608.261719 213.878906 L 3389.058594 340.441406 C 3315.988281 298.25 3242.929688 256.058594 3169.859375 213.878906 L 3169.859375 0.160156 L 3184.261719 0.160156 L 3184.261719 205.640625 L 3389.058594 323.878906 L 3593.859375 205.640625 L 3593.859375 0.160156 L 3608.261719 0.160156 "/>
<path fill-rule="nonzero" fill="rgb(80.076599%, 80.076599%, 80.076599%)" fill-opacity="1" d="M 3820.269531 0.160156 L 3820.269531 91.480469 L 3601.058594 218.039062 C 3528 175.851562 3454.929688 133.660156 3381.859375 91.480469 L 3381.859375 0.160156 L 3396.261719 0.160156 L 3396.261719 83.238281 L 3601.058594 201.480469 L 3805.871094 83.238281 L 3805.871094 0.160156 L 3820.269531 0.160156 "/>
<path fill-rule="nonzero" fill="rgb(80.076599%, 80.076599%, 80.076599%)" fill-opacity="1" d="M 4032.269531 0.160156 L 4032.269531 213.878906 C 3959.199219 256.058594 3886.128906 298.25 3813.070312 340.441406 C 3740 298.25 3666.929688 256.058594 3593.859375 213.878906 L 3593.859375 0.160156 L 3608.261719 0.160156 L 3608.261719 205.640625 L 3813.070312 323.878906 L 4017.871094 205.640625 L 4017.871094 0.160156 L 4032.269531 0.160156 "/>
<path fill-rule="nonzero" fill="rgb(80.076599%, 80.076599%, 80.076599%)" fill-opacity="1" d="M 4244.269531 0.160156 L 4244.269531 91.480469 C 4171.199219 133.660156 4098.128906 175.851562 4025.070312 218.039062 C 3952 175.851562 3878.929688 133.660156 3805.871094 91.480469 L 3805.871094 0.160156 L 3820.269531 0.160156 L 3820.269531 83.238281 L 4025.070312 201.480469 L 4229.871094 83.238281 L 4229.871094 0.160156 L 4244.269531 0.160156 "/>
<path fill-rule="nonzero" fill="rgb(80.076599%, 80.076599%, 80.076599%)" fill-opacity="1" d="M 4445.261719 220.238281 C 4375.859375 260.300781 4306.46875 300.371094 4237.070312 340.441406 C 4164.011719 298.25 4090.941406 256.058594 4017.871094 213.878906 L 4017.871094 0.160156 L 4032.269531 0.160156 L 4032.269531 205.640625 L 4237.070312 323.878906 L 4441.878906 205.640625 L 4441.878906 0.160156 L 4445.261719 0.160156 L 4445.261719 220.238281 "/>
<path fill-rule="nonzero" fill="rgb(80.076599%, 80.076599%, 80.076599%)" fill-opacity="1" d="M 4445.261719 215.839844 C 4373.46875 174.378906 4301.671875 132.929688 4229.871094 91.480469 L 4229.871094 0.160156 L 4244.269531 0.160156 L 4244.269531 83.238281 L 4445.261719 199.28125 L 4445.261719 215.839844 "/>
<path fill-rule="nonzero" fill="rgb(80.076599%, 80.076599%, 80.076599%)" fill-opacity="1" d="M 4445.261719 215.839844 L 4441.871094 213.878906 C 4441.878906 142.640625 4441.878906 71.398438 4441.878906 0.160156 L 4445.261719 0.160156 L 4445.261719 215.839844 "/>
<path fill-rule="nonzero" fill="rgb(80.076599%, 80.076599%, 80.076599%)" fill-opacity="1" d="M 0.820312 326.078125 L 4.207031 328.039062 L 4.207031 581.078125 L 0.820312 583.039062 L 0.820312 326.078125 "/>
<path fill-rule="nonzero" fill="rgb(80.076599%, 80.076599%, 80.076599%)" fill-opacity="1" d="M 0.820312 326.078125 L 216.210938 450.441406 L 216.210938 703.480469 C 144.414062 744.929688 72.617188 786.378906 0.820312 827.839844 L 0.820312 811.28125 L 201.8125 695.238281 L 201.8125 458.679688 L 99.4375 399.570312 L 0.820312 342.640625 L 0.820312 326.078125 "/>
<path fill-rule="nonzero" fill="rgb(80.076599%, 80.076599%, 80.076599%)" fill-opacity="1" d="M 212.585938 203.539062 L 428.214844 328.039062 L 428.214844 581.078125 C 355.144531 623.261719 282.078125 665.449219 209.011719 707.640625 C 139.617188 667.570312 70.21875 627.5 0.820312 587.441406 L 0.820312 321.679688 L 209.011719 201.480469 Z M 311.441406 277.171875 L 209.011719 218.039062 L 4.207031 336.28125 L 4.207031 572.839844 L 209.011719 691.078125 L 413.816406 572.839844 L 413.816406 336.28125 L 311.441406 277.171875 "/>
<path fill-rule="nonzero" fill="rgb(80.076599%, 80.076599%, 80.076599%)" fill-opacity="1" d="M 424.585938 325.941406 L 640.21875 450.441406 L 640.21875 703.480469 C 567.148438 745.660156 494.082031 787.851562 421.015625 830.039062 C 347.949219 787.851562 274.882812 745.660156 201.8125 703.480469 L 201.8125 450.441406 L 421.015625 323.878906 Z M 523.445312 399.570312 L 421.015625 340.441406 L 216.210938 458.679688 L 216.210938 695.238281 L 421.015625 813.480469 L 625.816406 695.238281 L 625.816406 458.679688 L 523.445312 399.570312 "/>
<path fill-rule="nonzero" fill="rgb(80.076599%, 80.076599%, 80.076599%)" fill-opacity="1" d="M 636.589844 203.539062 L 852.222656 328.039062 L 852.222656 581.078125 C 779.152344 623.261719 706.085938 665.449219 633.019531 707.640625 C 559.953125 665.449219 486.882812 623.261719 413.816406 581.078125 L 413.816406 328.039062 L 633.019531 201.480469 Z M 735.449219 277.171875 L 633.019531 218.039062 L 428.214844 336.28125 L 428.214844 572.839844 L 633.019531 691.078125 L 837.820312 572.839844 L 837.820312 336.28125 L 735.449219 277.171875 "/>
<path fill-rule="nonzero" fill="rgb(80.076599%, 80.076599%, 80.076599%)" fill-opacity="1" d="M 848.59375 325.941406 L 1064.21875 450.441406 L 1064.21875 703.480469 C 991.15625 745.660156 918.085938 787.851562 845.019531 830.039062 C 771.957031 787.851562 698.886719 745.660156 625.816406 703.480469 L 625.816406 450.441406 C 698.886719 408.25 771.953125 366.058594 845.023438 323.878906 Z M 947.449219 399.570312 L 845.019531 340.441406 L 640.21875 458.679688 L 640.21875 695.238281 L 845.019531 813.480469 L 1049.820312 695.238281 L 1049.820312 458.679688 L 947.449219 399.570312 "/>
<path fill-rule="nonzero" fill="rgb(80.076599%, 80.076599%, 80.076599%)" fill-opacity="1" d="M 1060.601562 203.539062 L 1276.230469 328.039062 L 1276.230469 581.078125 C 1203.160156 623.261719 1130.089844 665.449219 1057.019531 707.640625 C 983.960938 665.449219 910.890625 623.261719 837.820312 581.078125 L 837.820312 328.039062 L 1057.019531 201.480469 Z M 1159.449219 277.171875 L 1057.019531 218.039062 L 852.222656 336.28125 L 852.222656 572.839844 L 1057.019531 691.078125 L 1261.828125 572.839844 L 1261.828125 336.28125 L 1159.449219 277.171875 "/>
<path fill-rule="nonzero" fill="rgb(80.076599%, 80.076599%, 80.076599%)" fill-opacity="1" d="M 1272.601562 325.941406 L 1488.230469 450.441406 L 1488.230469 703.480469 C 1415.160156 745.660156 1342.089844 787.851562 1269.03125 830.039062 C 1195.960938 787.851562 1122.890625 745.660156 1049.820312 703.480469 L 1049.820312 450.441406 L 1269.03125 323.878906 Z M 1371.460938 399.570312 L 1269.03125 340.441406 L 1064.21875 458.679688 L 1064.21875 695.238281 L 1269.03125 813.480469 L 1473.828125 695.238281 L 1473.828125 458.679688 L 1371.460938 399.570312 "/>
<path fill-rule="nonzero" fill="rgb(80.076599%, 80.076599%, 80.076599%)" fill-opacity="1" d="M 1484.601562 203.539062 L 1700.230469 328.039062 L 1700.230469 581.078125 C 1627.171875 623.261719 1554.101562 665.449219 1481.03125 707.640625 C 1407.96875 665.449219 1334.898438 623.261719 1261.828125 581.078125 L 1261.828125 328.039062 L 1481.03125 201.480469 Z M 1583.460938 277.171875 L 1481.03125 218.039062 L 1276.230469 336.28125 L 1276.230469 572.839844 L 1481.03125 691.078125 L 1685.828125 572.839844 L 1685.828125 336.28125 L 1583.460938 277.171875 "/>
<path fill-rule="nonzero" fill="rgb(80.076599%, 80.076599%, 80.076599%)" fill-opacity="1" d="M 1696.609375 325.941406 L 1912.238281 450.441406 L 1912.238281 703.480469 C 1839.171875 745.660156 1766.101562 787.851562 1693.03125 830.039062 C 1619.96875 787.851562 1546.898438 745.660156 1473.828125 703.480469 L 1473.828125 450.441406 L 1693.03125 323.878906 Z M 1795.460938 399.570312 L 1693.03125 340.441406 L 1488.230469 458.679688 L 1488.230469 695.238281 L 1693.03125 813.480469 L 1897.839844 695.238281 L 1897.839844 458.679688 L 1795.460938 399.570312 "/>
<path fill-rule="nonzero" fill="rgb(80.076599%, 80.076599%, 80.076599%)" fill-opacity="1" d="M 1908.609375 203.539062 L 2124.238281 328.039062 L 2124.238281 581.078125 C 2051.171875 623.261719 1978.101562 665.449219 1905.039062 707.640625 C 1831.96875 665.449219 1758.898438 623.261719 1685.828125 581.078125 L 1685.828125 328.039062 L 1905.039062 201.480469 Z M 2007.46875 277.171875 L 1905.039062 218.039062 L 1700.230469 336.28125 L 1700.230469 572.839844 L 1905.039062 691.078125 L 2109.839844 572.839844 L 2109.839844 336.28125 L 2007.46875 277.171875 "/>
<path fill-rule="nonzero" fill="rgb(80.076599%, 80.076599%, 80.076599%)" fill-opacity="1" d="M 2120.609375 325.941406 L 2336.238281 450.441406 L 2336.238281 703.480469 C 2263.171875 745.660156 2190.101562 787.851562 2117.039062 830.039062 L 1897.839844 703.480469 L 1897.839844 450.441406 C 1970.898438 408.25 2043.96875 366.058594 2117.039062 323.878906 Z M 2219.46875 399.570312 L 2117.039062 340.441406 L 1912.238281 458.679688 L 1912.238281 695.238281 L 2117.039062 813.480469 L 2321.839844 695.238281 L 2321.839844 458.679688 L 2219.46875 399.570312 "/>
<path fill-rule="nonzero" fill="rgb(80.076599%, 80.076599%, 80.076599%)" fill-opacity="1" d="M 2332.621094 203.539062 L 2548.25 328.039062 L 2548.25 581.078125 C 2475.179688 623.261719 2402.109375 665.449219 2329.039062 707.640625 C 2255.980469 665.449219 2182.910156 623.261719 2109.839844 581.078125 L 2109.839844 328.039062 L 2329.039062 201.480469 Z M 2431.46875 277.171875 L 2329.039062 218.039062 L 2124.238281 336.28125 L 2124.238281 572.839844 L 2329.039062 691.078125 L 2533.851562 572.839844 L 2533.851562 336.28125 L 2431.46875 277.171875 "/>
<path fill-rule="nonzero" fill="rgb(80.076599%, 80.076599%, 80.076599%)" fill-opacity="1" d="M 2544.621094 325.941406 L 2760.25 450.441406 L 2760.25 703.480469 C 2687.179688 745.660156 2614.109375 787.851562 2541.050781 830.039062 C 2467.980469 787.851562 2394.910156 745.660156 2321.839844 703.480469 L 2321.839844 450.441406 L 2541.050781 323.878906 Z M 2643.480469 399.570312 L 2541.050781 340.441406 L 2336.238281 458.679688 L 2336.238281 695.238281 L 2541.050781 813.480469 L 2745.851562 695.238281 L 2745.851562 458.679688 L 2643.480469 399.570312 "/>
<path fill-rule="nonzero" fill="rgb(80.076599%, 80.076599%, 80.076599%)" fill-opacity="1" d="M 2756.621094 203.539062 L 2972.25 328.039062 L 2972.25 581.078125 C 2899.179688 623.261719 2826.121094 665.449219 2753.050781 707.640625 C 2679.980469 665.449219 2606.921875 623.261719 2533.851562 581.078125 L 2533.851562 328.039062 L 2753.050781 201.480469 Z M 2855.480469 277.171875 L 2753.050781 218.039062 L 2548.25 336.28125 L 2548.25 572.839844 L 2753.050781 691.078125 L 2957.851562 572.839844 L 2957.851562 336.28125 L 2855.480469 277.171875 "/>
<path fill-rule="nonzero" fill="rgb(80.076599%, 80.076599%, 80.076599%)" fill-opacity="1" d="M 2968.628906 325.941406 L 3184.261719 450.441406 L 3184.261719 703.480469 C 3111.191406 745.660156 3038.121094 787.851562 2965.050781 830.039062 C 2891.988281 787.851562 2818.921875 745.660156 2745.851562 703.480469 L 2745.851562 450.441406 L 2965.050781 323.878906 Z M 3067.480469 399.570312 L 2965.050781 340.441406 L 2760.25 458.679688 L 2760.25 695.238281 L 2965.050781 813.480469 L 3169.859375 695.238281 L 3169.859375 458.679688 L 3067.480469 399.570312 "/>
<path fill-rule="nonzero" fill="rgb(80.076599%, 80.076599%, 80.076599%)" fill-opacity="1" d="M 3180.628906 203.539062 L 3396.261719 328.039062 L 3396.261719 581.078125 C 3323.191406 623.261719 3250.121094 665.449219 3177.058594 707.640625 C 3103.988281 665.449219 3030.921875 623.261719 2957.851562 581.078125 L 2957.851562 328.039062 L 3177.058594 201.480469 Z M 3279.488281 277.171875 L 3177.058594 218.039062 L 2972.25 336.28125 L 2972.25 572.839844 L 3177.058594 691.078125 L 3381.859375 572.839844 L 3381.859375 336.28125 L 3279.488281 277.171875 "/>
<path fill-rule="nonzero" fill="rgb(80.076599%, 80.076599%, 80.076599%)" fill-opacity="1" d="M 3392.628906 325.941406 L 3608.261719 450.441406 L 3608.261719 703.480469 C 3535.191406 745.660156 3462.121094 787.851562 3389.058594 830.039062 C 3315.988281 787.851562 3242.929688 745.660156 3169.859375 703.480469 L 3169.859375 450.441406 L 3389.058594 323.878906 Z M 3491.488281 399.570312 L 3389.058594 340.441406 L 3184.261719 458.679688 L 3184.261719 695.238281 L 3389.058594 813.480469 L 3593.859375 695.238281 L 3593.859375 458.679688 L 3491.488281 399.570312 "/>
<path fill-rule="nonzero" fill="rgb(80.076599%, 80.076599%, 80.076599%)" fill-opacity="1" d="M 3604.628906 203.539062 L 3820.269531 328.039062 L 3820.269531 581.078125 L 3601.058594 707.640625 C 3528 665.449219 3454.929688 623.261719 3381.859375 581.078125 L 3381.859375 328.039062 L 3601.058594 201.480469 Z M 3703.488281 277.171875 L 3601.058594 218.039062 L 3396.261719 336.28125 L 3396.261719 572.839844 L 3601.058594 691.078125 L 3805.871094 572.839844 L 3805.871094 336.28125 L 3703.488281 277.171875 "/>
<path fill-rule="nonzero" fill="rgb(80.076599%, 80.076599%, 80.076599%)" fill-opacity="1" d="M 3816.640625 325.941406 L 4032.269531 450.441406 L 4032.269531 703.480469 C 3959.199219 745.660156 3886.128906 787.851562 3813.070312 830.039062 C 3740 787.851562 3666.929688 745.660156 3593.859375 703.480469 L 3593.859375 450.441406 L 3813.070312 323.878906 Z M 3915.5 399.570312 L 3813.070312 340.441406 L 3608.261719 458.679688 L 3608.261719 695.238281 L 3813.070312 813.480469 L 4017.871094 695.238281 L 4017.871094 458.679688 L 3915.5 399.570312 "/>
<path fill-rule="nonzero" fill="rgb(80.076599%, 80.076599%, 80.076599%)" fill-opacity="1" d="M 4028.640625 203.539062 L 4244.269531 328.039062 L 4244.269531 581.078125 C 4171.199219 623.261719 4098.128906 665.449219 4025.070312 707.640625 C 3952 665.449219 3878.929688 623.261719 3805.871094 581.078125 L 3805.871094 328.039062 L 4025.070312 201.480469 Z M 4127.5 277.171875 L 4025.070312 218.039062 L 3820.269531 336.28125 L 3820.269531 572.839844 L 4025.070312 691.078125 L 4229.871094 572.839844 L 4229.871094 336.28125 L 4127.5 277.171875 "/>
<path fill-rule="nonzero" fill="rgb(80.076599%, 80.076599%, 80.076599%)" fill-opacity="1" d="M 4240.640625 325.941406 L 4445.261719 444.078125 L 4445.261719 709.839844 C 4375.859375 749.898438 4306.46875 789.96875 4237.070312 830.039062 C 4164.011719 787.851562 4090.941406 745.660156 4017.871094 703.480469 L 4017.871094 450.441406 L 4237.070312 323.878906 Z M 4339.5 399.570312 L 4237.070312 340.441406 L 4032.269531 458.679688 L 4032.269531 695.238281 L 4237.070312 813.480469 L 4441.878906 695.238281 L 4441.878906 458.679688 L 4339.5 399.570312 "/>
<path fill-rule="nonzero" fill="rgb(80.076599%, 80.076599%, 80.076599%)" fill-opacity="1" d="M 4445.261719 705.441406 C 4373.46875 663.980469 4301.671875 622.53125 4229.871094 581.078125 L 4229.871094 328.039062 L 4445.261719 203.679688 L 4445.261719 220.238281 L 4244.269531 336.28125 L 4244.269531 572.839844 L 4445.261719 688.878906 L 4445.261719 705.441406 "/>
<path fill-rule="nonzero" fill="rgb(80.076599%, 80.076599%, 80.076599%)" fill-opacity="1" d="M 4445.261719 705.441406 L 4441.871094 703.480469 C 4441.878906 619.128906 4441.878906 534.789062 4441.871094 450.441406 L 4445.261719 448.480469 L 4445.261719 705.441406 "/>
<path fill-rule="nonzero" fill="rgb(80.076599%, 80.076599%, 80.076599%)" fill-opacity="1" d="M 0.820312 815.679688 L 4.207031 817.640625 L 4.207031 1070.679688 L 0.820312 1072.640625 L 0.820312 815.679688 "/>
<path fill-rule="nonzero" fill="rgb(80.076599%, 80.076599%, 80.076599%)" fill-opacity="1" d="M 0.820312 815.679688 L 216.210938 940.039062 L 216.210938 1193.078125 L 0.820312 1317.441406 L 0.820312 1300.878906 L 201.8125 1184.839844 L 201.8125 948.28125 L 99.4375 889.171875 L 0.820312 832.238281 L 0.820312 815.679688 "/>
<path fill-rule="nonzero" fill="rgb(80.076599%, 80.076599%, 80.076599%)" fill-opacity="1" d="M 212.585938 693.140625 L 428.214844 817.640625 L 428.214844 1070.679688 C 355.144531 1112.859375 282.078125 1155.050781 209.011719 1197.238281 C 139.617188 1157.171875 70.21875 1117.101562 0.820312 1077.039062 L 0.820312 811.28125 L 209.011719 691.078125 Z M 311.441406 766.769531 L 209.011719 707.640625 L 4.207031 825.878906 L 4.207031 1062.441406 L 209.011719 1180.679688 L 413.816406 1062.441406 L 413.816406 825.878906 L 311.441406 766.769531 "/>
<path fill-rule="nonzero" fill="rgb(80.076599%, 80.076599%, 80.076599%)" fill-opacity="1" d="M 424.585938 815.539062 L 640.21875 940.039062 L 640.21875 1193.078125 L 421.015625 1319.640625 L 201.8125 1193.078125 L 201.8125 940.039062 L 421.015625 813.480469 Z M 523.445312 889.171875 L 421.015625 830.039062 L 216.210938 948.28125 L 216.210938 1184.839844 L 421.015625 1303.078125 L 625.816406 1184.839844 L 625.816406 948.28125 L 523.445312 889.171875 "/>
<path fill-rule="nonzero" fill="rgb(80.076599%, 80.076599%, 80.076599%)" fill-opacity="1" d="M 636.589844 693.140625 L 852.222656 817.640625 L 852.222656 1070.679688 C 779.152344 1112.859375 706.085938 1155.050781 633.019531 1197.238281 C 559.953125 1155.050781 486.882812 1112.859375 413.816406 1070.679688 L 413.816406 817.640625 L 633.019531 691.078125 Z M 735.449219 766.769531 L 633.019531 707.640625 L 428.214844 825.878906 L 428.214844 1062.441406 L 633.019531 1180.679688 L 837.820312 1062.441406 L 837.820312 825.878906 L 735.449219 766.769531 "/>
<path fill-rule="nonzero" fill="rgb(80.076599%, 80.076599%, 80.076599%)" fill-opacity="1" d="M 848.59375 815.539062 L 1064.21875 940.039062 L 1064.21875 1193.078125 L 845.023438 1319.640625 C 771.953125 1277.460938 698.886719 1235.261719 625.816406 1193.078125 L 625.816406 940.039062 C 698.886719 897.851562 771.953125 855.660156 845.023438 813.480469 Z M 947.449219 889.171875 L 845.019531 830.039062 L 640.21875 948.28125 L 640.21875 1184.839844 L 845.019531 1303.078125 L 1049.820312 1184.839844 L 1049.820312 948.28125 L 947.449219 889.171875 "/>
<path fill-rule="nonzero" fill="rgb(80.076599%, 80.076599%, 80.076599%)" fill-opacity="1" d="M 1060.601562 693.140625 L 1276.230469 817.640625 L 1276.230469 1070.679688 C 1203.160156 1112.859375 1130.089844 1155.050781 1057.019531 1197.238281 C 983.960938 1155.050781 910.890625 1112.859375 837.820312 1070.679688 L 837.820312 817.640625 L 1057.019531 691.078125 Z M 1159.449219 766.769531 L 1057.019531 707.640625 L 852.222656 825.878906 L 852.222656 1062.441406 L 1057.019531 1180.679688 L 1261.828125 1062.441406 L 1261.828125 825.878906 L 1159.449219 766.769531 "/>
<path fill-rule="nonzero" fill="rgb(80.076599%, 80.076599%, 80.076599%)" fill-opacity="1" d="M 1272.601562 815.539062 L 1488.230469 940.039062 L 1488.230469 1193.078125 L 1269.03125 1319.640625 L 1049.820312 1193.078125 L 1049.820312 940.039062 L 1269.03125 813.480469 Z M 1371.460938 889.171875 L 1269.03125 830.039062 L 1064.21875 948.28125 L 1064.21875 1184.839844 L 1269.03125 1303.078125 L 1473.828125 1184.839844 L 1473.828125 948.28125 L 1371.460938 889.171875 "/>
<path fill-rule="nonzero" fill="rgb(80.076599%, 80.076599%, 80.076599%)" fill-opacity="1" d="M 1484.601562 693.140625 L 1700.230469 817.640625 L 1700.230469 1070.679688 C 1627.171875 1112.859375 1554.101562 1155.050781 1481.03125 1197.238281 C 1407.96875 1155.050781 1334.898438 1112.859375 1261.828125 1070.679688 L 1261.828125 817.640625 L 1481.03125 691.078125 Z M 1583.460938 766.769531 L 1481.03125 707.640625 L 1276.230469 825.878906 L 1276.230469 1062.441406 L 1481.03125 1180.679688 L 1685.828125 1062.441406 L 1685.828125 825.878906 L 1583.460938 766.769531 "/>
<path fill-rule="nonzero" fill="rgb(80.076599%, 80.076599%, 80.076599%)" fill-opacity="1" d="M 1696.609375 815.539062 L 1912.238281 940.039062 L 1912.238281 1193.078125 L 1693.03125 1319.640625 L 1473.828125 1193.078125 L 1473.828125 940.039062 L 1693.03125 813.480469 Z M 1795.460938 889.171875 L 1693.03125 830.039062 L 1488.230469 948.28125 L 1488.230469 1184.839844 L 1693.03125 1303.078125 L 1897.839844 1184.839844 L 1897.839844 948.28125 L 1795.460938 889.171875 "/>
<path fill-rule="nonzero" fill="rgb(80.076599%, 80.076599%, 80.076599%)" fill-opacity="1" d="M 1908.609375 693.140625 L 2124.238281 817.640625 L 2124.238281 1070.679688 C 2051.171875 1112.859375 1978.101562 1155.050781 1905.039062 1197.238281 C 1831.96875 1155.050781 1758.898438 1112.859375 1685.828125 1070.679688 L 1685.828125 817.640625 L 1905.039062 691.078125 Z M 2007.46875 766.769531 L 1905.039062 707.640625 L 1700.230469 825.878906 L 1700.230469 1062.441406 L 1905.039062 1180.679688 L 2109.839844 1062.441406 L 2109.839844 825.878906 L 2007.46875 766.769531 "/>
<path fill-rule="nonzero" fill="rgb(80.076599%, 80.076599%, 80.076599%)" fill-opacity="1" d="M 2120.609375 815.539062 L 2336.238281 940.039062 L 2336.238281 1193.078125 L 2117.039062 1319.640625 L 1897.839844 1193.078125 L 1897.839844 940.039062 C 1970.898438 897.851562 2043.96875 855.660156 2117.039062 813.480469 Z M 2219.46875 889.171875 L 2117.039062 830.039062 L 1912.238281 948.28125 L 1912.238281 1184.839844 L 2117.039062 1303.078125 L 2321.839844 1184.839844 L 2321.839844 948.28125 L 2219.46875 889.171875 "/>
<path fill-rule="nonzero" fill="rgb(80.076599%, 80.076599%, 80.076599%)" fill-opacity="1" d="M 2332.621094 693.140625 L 2548.25 817.640625 L 2548.25 1070.679688 C 2475.179688 1112.859375 2402.109375 1155.050781 2329.039062 1197.238281 C 2255.980469 1155.050781 2182.910156 1112.859375 2109.839844 1070.679688 L 2109.839844 817.640625 L 2329.039062 691.078125 Z M 2431.46875 766.769531 L 2329.039062 707.640625 L 2124.238281 825.878906 L 2124.238281 1062.441406 L 2329.039062 1180.679688 L 2533.851562 1062.441406 L 2533.851562 825.878906 L 2431.46875 766.769531 "/>
<path fill-rule="nonzero" fill="rgb(80.076599%, 80.076599%, 80.076599%)" fill-opacity="1" d="M 2544.621094 815.539062 L 2760.25 940.039062 L 2760.25 1193.078125 L 2541.050781 1319.640625 L 2321.839844 1193.078125 L 2321.839844 940.039062 L 2541.050781 813.480469 Z M 2643.480469 889.171875 L 2541.050781 830.039062 L 2336.238281 948.28125 L 2336.238281 1184.839844 L 2541.050781 1303.078125 L 2745.851562 1184.839844 L 2745.851562 948.28125 L 2643.480469 889.171875 "/>
<path fill-rule="nonzero" fill="rgb(80.076599%, 80.076599%, 80.076599%)" fill-opacity="1" d="M 2756.621094 693.140625 L 2972.25 817.640625 L 2972.25 1070.679688 C 2899.179688 1112.859375 2826.121094 1155.050781 2753.050781 1197.238281 C 2679.980469 1155.050781 2606.921875 1112.859375 2533.851562 1070.679688 L 2533.851562 817.640625 L 2753.050781 691.078125 Z M 2855.480469 766.769531 L 2753.050781 707.640625 L 2548.25 825.878906 L 2548.25 1062.441406 L 2753.050781 1180.679688 L 2957.851562 1062.441406 L 2957.851562 825.878906 L 2855.480469 766.769531 "/>
<path fill-rule="nonzero" fill="rgb(80.076599%, 80.076599%, 80.076599%)" fill-opacity="1" d="M 2968.628906 815.539062 L 3184.261719 940.039062 L 3184.261719 1193.078125 L 2965.050781 1319.640625 L 2745.851562 1193.078125 L 2745.851562 940.039062 L 2965.050781 813.480469 Z M 3067.480469 889.171875 L 2965.050781 830.039062 L 2760.25 948.28125 L 2760.25 1184.839844 L 2965.050781 1303.078125 L 3169.859375 1184.839844 L 3169.859375 948.28125 L 3067.480469 889.171875 "/>
<path fill-rule="nonzero" fill="rgb(80.076599%, 80.076599%, 80.076599%)" fill-opacity="1" d="M 3180.628906 693.140625 L 3396.261719 817.640625 L 3396.261719 1070.679688 C 3323.191406 1112.859375 3250.121094 1155.050781 3177.058594 1197.238281 C 3103.988281 1155.050781 3030.921875 1112.859375 2957.851562 1070.679688 L 2957.851562 817.640625 L 3177.058594 691.078125 Z M 3279.488281 766.769531 L 3177.058594 707.640625 L 2972.25 825.878906 L 2972.25 1062.441406 L 3177.058594 1180.679688 L 3381.859375 1062.441406 L 3381.859375 825.878906 L 3279.488281 766.769531 "/>
<path fill-rule="nonzero" fill="rgb(80.076599%, 80.076599%, 80.076599%)" fill-opacity="1" d="M 3392.628906 815.539062 L 3608.261719 940.039062 L 3608.261719 1193.078125 L 3389.058594 1319.640625 L 3169.859375 1193.078125 L 3169.859375 940.039062 L 3389.058594 813.480469 Z M 3491.488281 889.171875 L 3389.058594 830.039062 L 3184.261719 948.28125 L 3184.261719 1184.839844 L 3389.058594 1303.078125 L 3593.859375 1184.839844 L 3593.859375 948.28125 L 3491.488281 889.171875 "/>
<path fill-rule="nonzero" fill="rgb(80.076599%, 80.076599%, 80.076599%)" fill-opacity="1" d="M 3604.628906 693.140625 L 3820.269531 817.640625 L 3820.269531 1070.679688 C 3747.199219 1112.859375 3674.128906 1155.050781 3601.058594 1197.238281 C 3528 1155.050781 3454.929688 1112.859375 3381.859375 1070.679688 L 3381.859375 817.640625 L 3601.058594 691.078125 Z M 3703.488281 766.769531 L 3601.058594 707.640625 L 3396.261719 825.878906 L 3396.261719 1062.441406 L 3601.058594 1180.679688 L 3805.871094 1062.441406 L 3805.871094 825.878906 L 3703.488281 766.769531 "/>
<path fill-rule="nonzero" fill="rgb(80.076599%, 80.076599%, 80.076599%)" fill-opacity="1" d="M 3816.640625 815.539062 L 4032.269531 940.039062 L 4032.269531 1193.078125 L 3813.070312 1319.640625 L 3593.859375 1193.078125 L 3593.859375 940.039062 L 3813.070312 813.480469 Z M 3915.5 889.171875 L 3813.070312 830.039062 L 3608.261719 948.28125 L 3608.261719 1184.839844 L 3813.070312 1303.078125 L 4017.871094 1184.839844 L 4017.871094 948.28125 L 3915.5 889.171875 "/>
<path fill-rule="nonzero" fill="rgb(80.076599%, 80.076599%, 80.076599%)" fill-opacity="1" d="M 4028.640625 693.140625 L 4244.269531 817.640625 L 4244.269531 1070.679688 C 4171.199219 1112.859375 4098.128906 1155.050781 4025.070312 1197.238281 C 3952 1155.050781 3878.929688 1112.859375 3805.871094 1070.679688 L 3805.871094 817.640625 L 4025.070312 691.078125 Z M 4127.5 766.769531 L 4025.070312 707.640625 L 3820.269531 825.878906 L 3820.269531 1062.441406 L 4025.070312 1180.679688 L 4229.871094 1062.441406 L 4229.871094 825.878906 L 4127.5 766.769531 "/>
<path fill-rule="nonzero" fill="rgb(80.076599%, 80.076599%, 80.076599%)" fill-opacity="1" d="M 4240.640625 815.539062 L 4445.261719 933.679688 L 4445.261719 1199.441406 L 4237.070312 1319.640625 L 4017.871094 1193.078125 L 4017.871094 940.039062 L 4237.070312 813.480469 Z M 4339.5 889.171875 L 4237.070312 830.039062 L 4032.269531 948.28125 L 4032.269531 1184.839844 L 4237.070312 1303.078125 L 4441.878906 1184.839844 L 4441.878906 948.28125 L 4339.5 889.171875 "/>
<path fill-rule="nonzero" fill="rgb(80.076599%, 80.076599%, 80.076599%)" fill-opacity="1" d="M 4445.261719 1195.039062 C 4373.46875 1153.578125 4301.671875 1112.128906 4229.871094 1070.679688 L 4229.871094 817.640625 L 4445.261719 693.28125 L 4445.261719 709.839844 L 4244.269531 825.878906 L 4244.269531 1062.441406 L 4445.261719 1178.480469 L 4445.261719 1195.039062 "/>
<path fill-rule="nonzero" fill="rgb(80.076599%, 80.076599%, 80.076599%)" fill-opacity="1" d="M 4445.261719 1195.039062 L 4441.871094 1193.078125 C 4441.878906 1108.730469 4441.878906 1024.390625 4441.871094 940.039062 L 4445.261719 938.078125 L 4445.261719 1195.039062 "/>
<path fill-rule="nonzero" fill="rgb(80.076599%, 80.076599%, 80.076599%)" fill-opacity="1" d="M 0.820312 1305.28125 L 4.207031 1307.238281 L 4.207031 1560.28125 L 0.820312 1562.238281 L 0.820312 1305.28125 "/>
<path fill-rule="nonzero" fill="rgb(80.076599%, 80.076599%, 80.076599%)" fill-opacity="1" d="M 0.820312 1305.28125 L 216.210938 1429.640625 L 216.210938 1682.683594 L 0.820312 1807.035156 L 0.820312 1790.480469 L 201.8125 1674.441406 L 201.8125 1437.878906 L 99.4375 1378.78125 L 0.820312 1321.839844 L 0.820312 1305.28125 "/>
<path fill-rule="nonzero" fill="rgb(80.076599%, 80.076599%, 80.076599%)" fill-opacity="1" d="M 212.585938 1182.738281 L 428.214844 1307.238281 L 428.214844 1560.28125 L 209.011719 1686.839844 L 0.820312 1566.640625 L 0.820312 1300.878906 L 209.011719 1180.679688 Z M 311.441406 1256.378906 L 209.011719 1197.238281 L 4.207031 1315.480469 L 4.207031 1552.039062 L 209.011719 1670.28125 L 413.816406 1552.039062 L 413.816406 1315.480469 L 311.441406 1256.378906 "/>
<path fill-rule="nonzero" fill="rgb(80.076599%, 80.076599%, 80.076599%)" fill-opacity="1" d="M 424.585938 1305.140625 L 640.21875 1429.640625 L 640.21875 1682.683594 L 421.015625 1809.238281 L 201.8125 1682.683594 L 201.8125 1429.640625 C 274.882812 1387.460938 347.949219 1345.269531 421.015625 1303.078125 Z M 523.445312 1378.78125 L 421.015625 1319.640625 L 216.210938 1437.878906 L 216.210938 1674.441406 L 421.015625 1792.683594 L 625.816406 1674.441406 L 625.816406 1437.878906 L 523.445312 1378.78125 "/>
<path fill-rule="nonzero" fill="rgb(80.076599%, 80.076599%, 80.076599%)" fill-opacity="1" d="M 636.589844 1182.738281 L 852.222656 1307.238281 L 852.222656 1560.28125 L 633.019531 1686.839844 L 413.816406 1560.28125 L 413.816406 1307.238281 L 633.019531 1180.679688 Z M 735.449219 1256.378906 L 633.019531 1197.238281 L 428.214844 1315.480469 L 428.214844 1552.039062 L 633.019531 1670.28125 L 837.820312 1552.039062 L 837.820312 1315.480469 L 735.449219 1256.378906 "/>
<path fill-rule="nonzero" fill="rgb(80.076599%, 80.076599%, 80.076599%)" fill-opacity="1" d="M 848.59375 1305.140625 L 1064.21875 1429.640625 L 1064.21875 1682.683594 L 845.023438 1809.238281 C 771.953125 1767.054688 698.886719 1724.867188 625.816406 1682.683594 L 625.816406 1429.640625 L 845.023438 1303.078125 Z M 947.449219 1378.78125 L 845.019531 1319.640625 L 640.21875 1437.878906 L 640.21875 1674.441406 L 845.019531 1792.683594 L 1049.820312 1674.441406 L 1049.820312 1437.878906 L 947.449219 1378.78125 "/>
<path fill-rule="nonzero" fill="rgb(80.076599%, 80.076599%, 80.076599%)" fill-opacity="1" d="M 1060.601562 1182.738281 L 1276.230469 1307.238281 L 1276.230469 1560.28125 L 1057.019531 1686.839844 L 837.820312 1560.28125 L 837.820312 1307.238281 L 1057.019531 1180.679688 Z M 1159.449219 1256.378906 L 1057.019531 1197.238281 L 852.222656 1315.480469 L 852.222656 1552.039062 L 1057.019531 1670.28125 L 1261.828125 1552.039062 L 1261.828125 1315.480469 L 1159.449219 1256.378906 "/>
<path fill-rule="nonzero" fill="rgb(80.076599%, 80.076599%, 80.076599%)" fill-opacity="1" d="M 1272.601562 1305.140625 L 1488.230469 1429.640625 L 1488.230469 1682.683594 L 1269.03125 1809.238281 L 1049.820312 1682.683594 L 1049.820312 1429.640625 C 1122.890625 1387.460938 1195.960938 1345.269531 1269.03125 1303.078125 Z M 1371.460938 1378.78125 L 1269.03125 1319.640625 L 1064.21875 1437.878906 L 1064.21875 1674.441406 L 1269.03125 1792.683594 L 1473.828125 1674.441406 L 1473.828125 1437.878906 L 1371.460938 1378.78125 "/>
<path fill-rule="nonzero" fill="rgb(80.076599%, 80.076599%, 80.076599%)" fill-opacity="1" d="M 1484.601562 1182.738281 L 1700.230469 1307.238281 L 1700.230469 1560.28125 L 1481.03125 1686.839844 L 1261.828125 1560.28125 L 1261.828125 1307.238281 L 1481.03125 1180.679688 Z M 1583.460938 1256.378906 L 1481.03125 1197.238281 L 1276.230469 1315.480469 L 1276.230469 1552.039062 L 1481.03125 1670.28125 L 1685.828125 1552.039062 L 1685.828125 1315.480469 L 1583.460938 1256.378906 "/>
<path fill-rule="nonzero" fill="rgb(80.076599%, 80.076599%, 80.076599%)" fill-opacity="1" d="M 1696.609375 1305.140625 L 1912.238281 1429.640625 L 1912.238281 1682.683594 L 1693.03125 1809.238281 L 1473.828125 1682.683594 L 1473.828125 1429.640625 C 1546.898438 1387.460938 1619.96875 1345.269531 1693.03125 1303.078125 Z M 1795.460938 1378.78125 L 1693.03125 1319.640625 L 1488.230469 1437.878906 L 1488.230469 1674.441406 L 1693.03125 1792.683594 L 1897.839844 1674.441406 L 1897.839844 1437.878906 L 1795.460938 1378.78125 "/>
<path fill-rule="nonzero" fill="rgb(80.076599%, 80.076599%, 80.076599%)" fill-opacity="1" d="M 1908.609375 1182.738281 L 2124.238281 1307.238281 L 2124.238281 1560.28125 L 1905.039062 1686.839844 L 1685.828125 1560.28125 L 1685.828125 1307.238281 L 1905.039062 1180.679688 Z M 2007.46875 1256.378906 L 1905.039062 1197.238281 L 1700.230469 1315.480469 L 1700.230469 1552.039062 L 1905.039062 1670.28125 L 2109.839844 1552.039062 L 2109.839844 1315.480469 L 2007.46875 1256.378906 "/>
<path fill-rule="nonzero" fill="rgb(80.076599%, 80.076599%, 80.076599%)" fill-opacity="1" d="M 2120.609375 1305.140625 L 2336.238281 1429.640625 L 2336.238281 1682.683594 L 2117.039062 1809.238281 C 2043.96875 1767.054688 1970.898438 1724.867188 1897.839844 1682.683594 L 1897.839844 1429.640625 C 1970.910156 1387.460938 2043.980469 1345.269531 2117.039062 1303.078125 Z M 2219.46875 1378.78125 L 2117.039062 1319.640625 L 1912.238281 1437.878906 L 1912.238281 1674.441406 L 2117.039062 1792.683594 L 2321.839844 1674.441406 L 2321.839844 1437.878906 L 2219.46875 1378.78125 "/>
<path fill-rule="nonzero" fill="rgb(80.076599%, 80.076599%, 80.076599%)" fill-opacity="1" d="M 2332.621094 1182.738281 L 2548.25 1307.238281 L 2548.25 1560.28125 C 2475.179688 1602.46875 2402.109375 1644.65625 2329.039062 1686.839844 L 2109.839844 1560.28125 L 2109.839844 1307.238281 L 2329.039062 1180.679688 Z M 2431.46875 1256.378906 L 2329.039062 1197.238281 L 2124.238281 1315.480469 L 2124.238281 1552.039062 L 2329.039062 1670.28125 L 2533.851562 1552.039062 L 2533.851562 1315.480469 L 2431.46875 1256.378906 "/>
<path fill-rule="nonzero" fill="rgb(80.076599%, 80.076599%, 80.076599%)" fill-opacity="1" d="M 2544.621094 1305.140625 L 2760.25 1429.640625 L 2760.25 1682.683594 L 2541.050781 1809.238281 L 2321.839844 1682.683594 L 2321.839844 1429.640625 C 2394.910156 1387.460938 2467.980469 1345.269531 2541.050781 1303.078125 Z M 2643.480469 1378.78125 L 2541.050781 1319.640625 L 2336.238281 1437.878906 L 2336.238281 1674.441406 L 2541.050781 1792.683594 L 2745.851562 1674.441406 L 2745.851562 1437.878906 L 2643.480469 1378.78125 "/>
<path fill-rule="nonzero" fill="rgb(80.076599%, 80.076599%, 80.076599%)" fill-opacity="1" d="M 2756.621094 1182.738281 L 2972.25 1307.238281 L 2972.25 1560.28125 L 2753.050781 1686.839844 L 2533.851562 1560.28125 L 2533.851562 1307.238281 L 2753.050781 1180.679688 Z M 2855.480469 1256.378906 L 2753.050781 1197.238281 L 2548.25 1315.480469 L 2548.25 1552.039062 L 2753.050781 1670.28125 L 2957.851562 1552.039062 L 2957.851562 1315.480469 L 2855.480469 1256.378906 "/>
<path fill-rule="nonzero" fill="rgb(80.076599%, 80.076599%, 80.076599%)" fill-opacity="1" d="M 2968.628906 1305.140625 L 3184.261719 1429.640625 L 3184.261719 1682.683594 L 2965.050781 1809.238281 L 2745.851562 1682.683594 L 2745.851562 1429.640625 C 2818.921875 1387.460938 2891.988281 1345.269531 2965.050781 1303.078125 Z M 3067.480469 1378.78125 L 2965.050781 1319.640625 L 2760.25 1437.878906 L 2760.25 1674.441406 L 2965.050781 1792.683594 L 3169.859375 1674.441406 L 3169.859375 1437.878906 L 3067.480469 1378.78125 "/>
<path fill-rule="nonzero" fill="rgb(80.076599%, 80.076599%, 80.076599%)" fill-opacity="1" d="M 3180.628906 1182.738281 L 3396.261719 1307.238281 L 3396.261719 1560.28125 L 3177.058594 1686.839844 L 2957.851562 1560.28125 L 2957.851562 1307.238281 L 3177.058594 1180.679688 Z M 3279.488281 1256.378906 L 3177.058594 1197.238281 L 2972.25 1315.480469 L 2972.25 1552.039062 L 3177.058594 1670.28125 L 3381.859375 1552.039062 L 3381.859375 1315.480469 L 3279.488281 1256.378906 "/>
<path fill-rule="nonzero" fill="rgb(80.076599%, 80.076599%, 80.076599%)" fill-opacity="1" d="M 3392.628906 1305.140625 L 3608.261719 1429.640625 L 3608.261719 1682.683594 L 3389.058594 1809.238281 L 3169.859375 1682.683594 L 3169.859375 1429.640625 C 3242.929688 1387.460938 3315.988281 1345.269531 3389.058594 1303.078125 Z M 3491.488281 1378.78125 L 3389.058594 1319.640625 L 3184.261719 1437.878906 L 3184.261719 1674.441406 L 3389.058594 1792.683594 L 3593.859375 1674.441406 L 3593.859375 1437.878906 L 3491.488281 1378.78125 "/>
<path fill-rule="nonzero" fill="rgb(80.076599%, 80.076599%, 80.076599%)" fill-opacity="1" d="M 3604.628906 1182.738281 L 3820.269531 1307.238281 L 3820.269531 1560.28125 L 3601.058594 1686.839844 L 3381.859375 1560.28125 L 3381.859375 1307.238281 L 3601.058594 1180.679688 Z M 3703.488281 1256.378906 L 3601.058594 1197.238281 L 3396.261719 1315.480469 L 3396.261719 1552.039062 L 3601.058594 1670.28125 L 3805.871094 1552.039062 L 3805.871094 1315.480469 L 3703.488281 1256.378906 "/>
<path fill-rule="nonzero" fill="rgb(80.076599%, 80.076599%, 80.076599%)" fill-opacity="1" d="M 3816.640625 1305.140625 L 4032.269531 1429.640625 L 4032.269531 1682.683594 L 3813.070312 1809.238281 L 3593.859375 1682.683594 L 3593.859375 1429.640625 C 3666.929688 1387.460938 3740 1345.269531 3813.070312 1303.078125 Z M 3915.5 1378.78125 L 3813.070312 1319.640625 L 3608.261719 1437.878906 L 3608.261719 1674.441406 L 3813.070312 1792.683594 L 4017.871094 1674.441406 L 4017.871094 1437.878906 L 3915.5 1378.78125 "/>
<path fill-rule="nonzero" fill="rgb(80.076599%, 80.076599%, 80.076599%)" fill-opacity="1" d="M 4028.640625 1182.738281 L 4244.269531 1307.238281 L 4244.269531 1560.28125 L 4025.070312 1686.839844 L 3805.871094 1560.28125 L 3805.871094 1307.238281 L 4025.070312 1180.679688 Z M 4127.5 1256.378906 L 4025.070312 1197.238281 L 3820.269531 1315.480469 L 3820.269531 1552.039062 L 4025.070312 1670.28125 L 4229.871094 1552.039062 L 4229.871094 1315.480469 L 4127.5 1256.378906 "/>
<path fill-rule="nonzero" fill="rgb(80.076599%, 80.076599%, 80.076599%)" fill-opacity="1" d="M 4240.640625 1305.140625 L 4445.261719 1423.28125 L 4445.261719 1689.039062 L 4237.070312 1809.238281 L 4017.871094 1682.683594 L 4017.871094 1429.640625 C 4090.941406 1387.460938 4164.011719 1345.269531 4237.070312 1303.078125 Z M 4339.5 1378.78125 L 4237.070312 1319.640625 L 4032.269531 1437.878906 L 4032.269531 1674.441406 L 4237.070312 1792.683594 L 4441.878906 1674.441406 L 4441.878906 1437.878906 L 4339.5 1378.78125 "/>
<path fill-rule="nonzero" fill="rgb(80.076599%, 80.076599%, 80.076599%)" fill-opacity="1" d="M 4445.261719 1684.636719 L 4229.871094 1560.28125 L 4229.871094 1307.238281 L 4445.261719 1182.878906 L 4445.261719 1199.441406 L 4244.269531 1315.480469 L 4244.269531 1552.039062 L 4445.261719 1668.082031 L 4445.261719 1684.636719 "/>
<path fill-rule="nonzero" fill="rgb(80.076599%, 80.076599%, 80.076599%)" fill-opacity="1" d="M 4445.261719 1684.636719 L 4441.871094 1682.683594 C 4441.878906 1598.335938 4441.878906 1513.988281 4441.871094 1429.640625 L 4445.261719 1427.679688 L 4445.261719 1684.636719 "/>
<path fill-rule="nonzero" fill="rgb(80.076599%, 80.076599%, 80.076599%)" fill-opacity="1" d="M 0.820312 1794.882812 L 4.207031 1796.839844 L 4.207031 2049.882812 L 0.820312 2051.839844 L 0.820312 1794.882812 "/>
<path fill-rule="nonzero" fill="rgb(80.076599%, 80.076599%, 80.076599%)" fill-opacity="1" d="M 0.820312 1794.882812 L 216.210938 1919.238281 L 216.210938 2172.28125 L 0.820312 2296.636719 L 0.820312 2280.082031 L 201.8125 2164.039062 L 201.8125 1927.480469 L 99.4375 1868.375 L 0.820312 1811.4375 L 0.820312 1794.882812 "/>
<path fill-rule="nonzero" fill="rgb(80.076599%, 80.076599%, 80.076599%)" fill-opacity="1" d="M 212.585938 1672.34375 L 428.214844 1796.839844 L 428.214844 2049.882812 L 209.011719 2176.4375 L 0.820312 2056.238281 L 0.820312 1790.480469 C 70.21875 1750.417969 139.617188 1710.351562 209.011719 1670.28125 Z M 311.441406 1745.976562 L 209.011719 1686.839844 L 4.207031 1805.082031 L 4.207031 2041.640625 L 209.011719 2159.882812 L 413.816406 2041.640625 L 413.816406 1805.082031 L 311.441406 1745.976562 "/>
<path fill-rule="nonzero" fill="rgb(80.076599%, 80.076599%, 80.076599%)" fill-opacity="1" d="M 424.585938 1794.746094 L 640.21875 1919.238281 L 640.21875 2172.28125 L 421.015625 2298.839844 L 201.8125 2172.28125 L 201.8125 1919.238281 C 274.882812 1877.054688 347.949219 1834.871094 421.015625 1792.683594 Z M 523.445312 1868.375 L 421.015625 1809.238281 L 216.210938 1927.480469 L 216.210938 2164.039062 L 421.015625 2282.285156 L 625.816406 2164.039062 L 625.816406 1927.480469 L 523.445312 1868.375 "/>
<path fill-rule="nonzero" fill="rgb(80.076599%, 80.076599%, 80.076599%)" fill-opacity="1" d="M 636.589844 1672.34375 L 852.222656 1796.839844 L 852.222656 2049.882812 L 633.019531 2176.4375 L 413.816406 2049.882812 L 413.816406 1796.839844 C 486.882812 1754.65625 559.953125 1712.472656 633.019531 1670.28125 Z M 735.449219 1745.976562 L 633.019531 1686.839844 L 428.214844 1805.082031 L 428.214844 2041.640625 L 633.019531 2159.882812 L 837.820312 2041.640625 L 837.820312 1805.082031 L 735.449219 1745.976562 "/>
<path fill-rule="nonzero" fill="rgb(80.076599%, 80.076599%, 80.076599%)" fill-opacity="1" d="M 848.59375 1794.746094 L 1064.21875 1919.238281 L 1064.21875 2172.28125 L 845.023438 2298.839844 C 771.953125 2256.65625 698.886719 2214.46875 625.816406 2172.28125 L 625.816406 1919.238281 C 698.886719 1877.054688 771.957031 1834.871094 845.019531 1792.683594 Z M 947.449219 1868.375 L 845.019531 1809.238281 L 640.21875 1927.480469 L 640.21875 2164.039062 L 845.019531 2282.285156 L 1049.820312 2164.039062 L 1049.820312 1927.480469 L 947.449219 1868.375 "/>
<path fill-rule="nonzero" fill="rgb(80.076599%, 80.076599%, 80.076599%)" fill-opacity="1" d="M 1060.601562 1672.34375 L 1276.230469 1796.839844 L 1276.230469 2049.882812 L 1057.019531 2176.4375 L 837.820312 2049.882812 L 837.820312 1796.839844 C 910.890625 1754.65625 983.960938 1712.472656 1057.019531 1670.28125 Z M 1159.449219 1745.976562 L 1057.019531 1686.839844 L 852.222656 1805.082031 L 852.222656 2041.640625 L 1057.019531 2159.882812 L 1261.828125 2041.640625 L 1261.828125 1805.082031 L 1159.449219 1745.976562 "/>
<path fill-rule="nonzero" fill="rgb(80.076599%, 80.076599%, 80.076599%)" fill-opacity="1" d="M 1272.601562 1794.746094 L 1488.230469 1919.238281 L 1488.230469 2172.28125 L 1269.03125 2298.839844 L 1049.820312 2172.28125 L 1049.820312 1919.238281 C 1122.890625 1877.054688 1195.960938 1834.871094 1269.03125 1792.683594 Z M 1371.460938 1868.375 L 1269.03125 1809.238281 L 1064.21875 1927.480469 L 1064.21875 2164.039062 L 1269.03125 2282.285156 L 1473.828125 2164.039062 L 1473.828125 1927.480469 L 1371.460938 1868.375 "/>
<path fill-rule="nonzero" fill="rgb(80.076599%, 80.076599%, 80.076599%)" fill-opacity="1" d="M 1484.601562 1672.34375 L 1700.230469 1796.839844 L 1700.230469 2049.882812 L 1481.03125 2176.4375 L 1261.828125 2049.882812 L 1261.828125 1796.839844 C 1334.898438 1754.65625 1407.96875 1712.472656 1481.03125 1670.28125 Z M 1583.460938 1745.976562 L 1481.03125 1686.839844 L 1276.230469 1805.082031 L 1276.230469 2041.640625 L 1481.03125 2159.882812 L 1685.828125 2041.640625 L 1685.828125 1805.082031 L 1583.460938 1745.976562 "/>
<path fill-rule="nonzero" fill="rgb(80.076599%, 80.076599%, 80.076599%)" fill-opacity="1" d="M 1696.609375 1794.746094 L 1912.238281 1919.238281 L 1912.238281 2172.28125 L 1693.03125 2298.839844 L 1473.828125 2172.28125 L 1473.828125 1919.238281 C 1546.898438 1877.054688 1619.96875 1834.871094 1693.03125 1792.683594 Z M 1795.460938 1868.375 L 1693.03125 1809.238281 L 1488.230469 1927.480469 L 1488.230469 2164.039062 L 1693.03125 2282.285156 L 1897.839844 2164.039062 L 1897.839844 1927.480469 L 1795.460938 1868.375 "/>
<path fill-rule="nonzero" fill="rgb(80.076599%, 80.076599%, 80.076599%)" fill-opacity="1" d="M 1908.609375 1672.34375 L 2124.238281 1796.839844 L 2124.238281 2049.882812 L 1905.039062 2176.4375 L 1685.828125 2049.882812 L 1685.828125 1796.839844 C 1758.898438 1754.65625 1831.96875 1712.472656 1905.039062 1670.28125 Z M 2007.46875 1745.976562 L 1905.039062 1686.839844 L 1700.230469 1805.082031 L 1700.230469 2041.640625 L 1905.039062 2159.882812 L 2109.839844 2041.640625 L 2109.839844 1805.082031 L 2007.46875 1745.976562 "/>
<path fill-rule="nonzero" fill="rgb(80.076599%, 80.076599%, 80.076599%)" fill-opacity="1" d="M 2120.609375 1794.746094 L 2336.238281 1919.238281 L 2336.238281 2172.28125 L 2117.039062 2298.839844 L 1897.839844 2172.28125 L 1897.839844 1919.238281 L 2117.039062 1792.683594 Z M 2219.46875 1868.375 L 2117.039062 1809.238281 L 1912.238281 1927.480469 L 1912.238281 2164.039062 L 2117.039062 2282.285156 L 2321.839844 2164.039062 L 2321.839844 1927.480469 L 2219.46875 1868.375 "/>
<path fill-rule="nonzero" fill="rgb(80.076599%, 80.076599%, 80.076599%)" fill-opacity="1" d="M 2332.621094 1672.34375 L 2548.25 1796.839844 L 2548.25 2049.882812 L 2329.039062 2176.4375 L 2109.839844 2049.882812 L 2109.839844 1796.839844 C 2182.910156 1754.65625 2255.980469 1712.472656 2329.039062 1670.28125 Z M 2431.46875 1745.976562 L 2329.039062 1686.839844 L 2124.238281 1805.082031 L 2124.238281 2041.640625 L 2329.039062 2159.882812 L 2533.851562 2041.640625 L 2533.851562 1805.082031 L 2431.46875 1745.976562 "/>
<path fill-rule="nonzero" fill="rgb(80.076599%, 80.076599%, 80.076599%)" fill-opacity="1" d="M 2544.621094 1794.746094 L 2760.25 1919.238281 L 2760.25 2172.28125 L 2541.050781 2298.839844 L 2321.839844 2172.28125 L 2321.839844 1919.238281 C 2394.910156 1877.054688 2467.980469 1834.871094 2541.050781 1792.683594 Z M 2643.480469 1868.375 L 2541.050781 1809.238281 L 2336.238281 1927.480469 L 2336.238281 2164.039062 L 2541.050781 2282.285156 L 2745.851562 2164.039062 L 2745.851562 1927.480469 L 2643.480469 1868.375 "/>
<path fill-rule="nonzero" fill="rgb(80.076599%, 80.076599%, 80.076599%)" fill-opacity="1" d="M 2756.621094 1672.34375 L 2972.25 1796.839844 L 2972.25 2049.882812 L 2753.050781 2176.4375 L 2533.851562 2049.882812 L 2533.851562 1796.839844 C 2606.921875 1754.65625 2679.980469 1712.472656 2753.050781 1670.28125 Z M 2855.480469 1745.976562 L 2753.050781 1686.839844 L 2548.25 1805.082031 L 2548.25 2041.640625 L 2753.050781 2159.882812 L 2957.851562 2041.640625 L 2957.851562 1805.082031 L 2855.480469 1745.976562 "/>
<path fill-rule="nonzero" fill="rgb(80.076599%, 80.076599%, 80.076599%)" fill-opacity="1" d="M 2968.628906 1794.746094 L 3184.261719 1919.238281 L 3184.261719 2172.28125 C 3111.191406 2214.46875 3038.121094 2256.65625 2965.050781 2298.839844 L 2745.851562 2172.28125 L 2745.851562 1919.238281 C 2818.921875 1877.054688 2891.988281 1834.871094 2965.050781 1792.683594 Z M 3067.480469 1868.375 L 2965.050781 1809.238281 L 2760.25 1927.480469 L 2760.25 2164.039062 L 2965.050781 2282.285156 L 3169.859375 2164.039062 L 3169.859375 1927.480469 L 3067.480469 1868.375 "/>
<path fill-rule="nonzero" fill="rgb(80.076599%, 80.076599%, 80.076599%)" fill-opacity="1" d="M 3180.628906 1672.34375 L 3396.261719 1796.839844 L 3396.261719 2049.882812 L 3177.058594 2176.4375 L 2957.851562 2049.882812 L 2957.851562 1796.839844 C 3030.921875 1754.65625 3103.988281 1712.472656 3177.058594 1670.28125 Z M 3279.488281 1745.976562 L 3177.058594 1686.839844 L 2972.25 1805.082031 L 2972.25 2041.640625 L 3177.058594 2159.882812 L 3381.859375 2041.640625 L 3381.859375 1805.082031 L 3279.488281 1745.976562 "/>
<path fill-rule="nonzero" fill="rgb(80.076599%, 80.076599%, 80.076599%)" fill-opacity="1" d="M 3392.628906 1794.746094 L 3608.261719 1919.238281 L 3608.261719 2172.28125 L 3389.058594 2298.839844 L 3169.859375 2172.28125 L 3169.859375 1919.238281 C 3242.929688 1877.054688 3315.988281 1834.875 3389.058594 1792.683594 Z M 3491.488281 1868.375 L 3389.058594 1809.238281 L 3184.261719 1927.480469 L 3184.261719 2164.039062 L 3389.058594 2282.285156 L 3593.859375 2164.039062 L 3593.859375 1927.480469 L 3491.488281 1868.375 "/>
<path fill-rule="nonzero" fill="rgb(80.076599%, 80.076599%, 80.076599%)" fill-opacity="1" d="M 3604.628906 1672.34375 L 3820.269531 1796.839844 L 3820.269531 2049.882812 L 3601.058594 2176.4375 L 3381.859375 2049.882812 L 3381.859375 1796.839844 C 3454.929688 1754.65625 3528 1712.472656 3601.058594 1670.28125 Z M 3703.488281 1745.976562 L 3601.058594 1686.839844 L 3396.261719 1805.082031 L 3396.261719 2041.640625 L 3601.058594 2159.882812 L 3805.871094 2041.640625 L 3805.871094 1805.082031 L 3703.488281 1745.976562 "/>
<path fill-rule="nonzero" fill="rgb(80.076599%, 80.076599%, 80.076599%)" fill-opacity="1" d="M 3816.640625 1794.746094 L 4032.269531 1919.238281 L 4032.269531 2172.28125 L 3813.070312 2298.839844 L 3593.859375 2172.28125 L 3593.859375 1919.238281 C 3666.929688 1877.054688 3740 1834.871094 3813.070312 1792.683594 Z M 3915.5 1868.375 L 3813.070312 1809.238281 L 3608.261719 1927.480469 L 3608.261719 2164.039062 L 3813.070312 2282.285156 L 4017.871094 2164.039062 L 4017.871094 1927.480469 L 3915.5 1868.375 "/>
<path fill-rule="nonzero" fill="rgb(80.076599%, 80.076599%, 80.076599%)" fill-opacity="1" d="M 4028.640625 1672.34375 L 4244.269531 1796.839844 L 4244.269531 2049.882812 L 4025.070312 2176.4375 L 3805.871094 2049.882812 L 3805.871094 1796.839844 C 3878.929688 1754.65625 3952 1712.472656 4025.070312 1670.28125 Z M 4127.5 1745.976562 L 4025.070312 1686.839844 L 3820.269531 1805.082031 L 3820.269531 2041.640625 L 4025.070312 2159.882812 L 4229.871094 2041.640625 L 4229.871094 1805.082031 L 4127.5 1745.976562 "/>
<path fill-rule="nonzero" fill="rgb(80.076599%, 80.076599%, 80.076599%)" fill-opacity="1" d="M 4240.640625 1794.746094 L 4445.261719 1912.882812 L 4445.261719 2178.640625 L 4237.070312 2298.839844 L 4017.871094 2172.28125 L 4017.871094 1919.238281 C 4090.941406 1877.054688 4164.011719 1834.871094 4237.070312 1792.683594 Z M 4339.5 1868.375 L 4237.070312 1809.238281 L 4032.269531 1927.480469 L 4032.269531 2164.039062 L 4237.070312 2282.285156 L 4441.878906 2164.039062 L 4441.878906 1927.480469 L 4339.5 1868.375 "/>
<path fill-rule="nonzero" fill="rgb(80.076599%, 80.076599%, 80.076599%)" fill-opacity="1" d="M 4445.261719 2174.238281 L 4229.871094 2049.882812 L 4229.871094 1796.839844 C 4301.671875 1755.390625 4373.46875 1713.9375 4445.261719 1672.484375 L 4445.261719 1689.039062 L 4244.269531 1805.082031 L 4244.269531 2041.640625 L 4445.261719 2157.683594 L 4445.261719 2174.238281 "/>
<path fill-rule="nonzero" fill="rgb(80.076599%, 80.076599%, 80.076599%)" fill-opacity="1" d="M 4445.261719 2174.238281 L 4441.871094 2172.28125 C 4441.878906 2087.933594 4441.878906 2003.585938 4441.871094 1919.238281 L 4445.261719 1917.285156 L 4445.261719 2174.238281 "/>
<path fill-rule="nonzero" fill="rgb(80.076599%, 80.076599%, 80.076599%)" fill-opacity="1" d="M 0.820312 2284.484375 L 4.207031 2286.441406 L 4.207031 2500.160156 L 0.820312 2500.160156 L 0.820312 2284.484375 "/>
<path fill-rule="nonzero" fill="rgb(80.076599%, 80.076599%, 80.076599%)" fill-opacity="1" d="M 0.820312 2284.484375 L 216.210938 2408.839844 L 216.210938 2500.160156 L 201.8125 2500.160156 L 201.8125 2417.082031 L 99.4375 2357.976562 L 0.820312 2301.039062 L 0.820312 2284.484375 "/>
<path fill-rule="nonzero" fill="rgb(80.076599%, 80.076599%, 80.076599%)" fill-opacity="1" d="M 212.585938 2161.945312 L 428.214844 2286.441406 L 428.214844 2500.160156 L 413.816406 2500.160156 L 413.816406 2294.683594 L 311.441406 2235.578125 L 209.011719 2176.4375 L 4.207031 2294.683594 L 4.207031 2500.160156 L 0.820312 2500.160156 L 0.820312 2280.082031 C 70.21875 2240.019531 139.617188 2199.953125 209.011719 2159.882812 L 212.585938 2161.945312 "/>
<path fill-rule="nonzero" fill="rgb(80.076599%, 80.076599%, 80.076599%)" fill-opacity="1" d="M 424.585938 2284.347656 L 640.21875 2408.839844 L 640.21875 2500.160156 L 625.816406 2500.160156 L 625.816406 2417.082031 L 523.445312 2357.976562 L 421.015625 2298.839844 L 216.210938 2417.082031 L 216.210938 2500.160156 L 201.8125 2500.160156 L 201.8125 2408.839844 L 421.015625 2282.28125 L 424.585938 2284.347656 "/>
<path fill-rule="nonzero" fill="rgb(80.076599%, 80.076599%, 80.076599%)" fill-opacity="1" d="M 636.589844 2161.945312 L 852.222656 2286.441406 L 852.222656 2500.160156 L 837.820312 2500.160156 L 837.820312 2294.683594 L 735.449219 2235.578125 L 633.019531 2176.4375 L 428.214844 2294.683594 L 428.214844 2500.160156 L 413.816406 2500.160156 L 413.816406 2286.441406 C 486.882812 2244.257812 559.953125 2202.074219 633.019531 2159.882812 L 636.589844 2161.945312 "/>
<path fill-rule="nonzero" fill="rgb(80.076599%, 80.076599%, 80.076599%)" fill-opacity="1" d="M 848.59375 2284.347656 L 1064.21875 2408.839844 L 1064.21875 2500.160156 L 1049.820312 2500.160156 L 1049.820312 2417.082031 L 947.449219 2357.976562 L 845.019531 2298.839844 L 640.21875 2417.082031 L 640.21875 2500.160156 L 625.816406 2500.160156 L 625.816406 2408.839844 C 698.886719 2366.65625 771.957031 2324.472656 845.019531 2282.28125 L 848.59375 2284.347656 "/>
<path fill-rule="nonzero" fill="rgb(80.076599%, 80.076599%, 80.076599%)" fill-opacity="1" d="M 1060.601562 2161.945312 L 1276.230469 2286.441406 L 1276.230469 2500.160156 L 1261.828125 2500.160156 L 1261.828125 2294.683594 L 1159.449219 2235.578125 L 1057.019531 2176.4375 L 852.222656 2294.683594 L 852.222656 2500.160156 L 837.820312 2500.160156 L 837.820312 2286.441406 C 910.890625 2244.257812 983.960938 2202.074219 1057.019531 2159.882812 L 1060.601562 2161.945312 "/>
<path fill-rule="nonzero" fill="rgb(80.076599%, 80.076599%, 80.076599%)" fill-opacity="1" d="M 1272.601562 2284.347656 L 1488.230469 2408.839844 L 1488.230469 2500.160156 L 1473.828125 2500.160156 L 1473.828125 2417.082031 L 1371.460938 2357.976562 L 1269.03125 2298.839844 L 1064.21875 2417.082031 L 1064.21875 2500.160156 L 1049.820312 2500.160156 L 1049.820312 2408.839844 C 1122.890625 2366.65625 1195.960938 2324.472656 1269.03125 2282.28125 L 1272.601562 2284.347656 "/>
<path fill-rule="nonzero" fill="rgb(80.076599%, 80.076599%, 80.076599%)" fill-opacity="1" d="M 1484.601562 2161.945312 L 1700.230469 2286.441406 L 1700.230469 2500.160156 L 1685.828125 2500.160156 L 1685.828125 2294.683594 L 1583.460938 2235.578125 L 1481.03125 2176.4375 L 1276.230469 2294.683594 L 1276.230469 2500.160156 L 1261.828125 2500.160156 L 1261.828125 2286.441406 C 1334.898438 2244.257812 1407.96875 2202.074219 1481.03125 2159.882812 L 1484.601562 2161.945312 "/>
<path fill-rule="nonzero" fill="rgb(80.076599%, 80.076599%, 80.076599%)" fill-opacity="1" d="M 1696.609375 2284.347656 L 1912.238281 2408.839844 L 1912.238281 2500.160156 L 1897.839844 2500.160156 L 1897.839844 2417.082031 L 1795.460938 2357.976562 L 1693.03125 2298.839844 L 1488.230469 2417.082031 L 1488.230469 2500.160156 L 1473.828125 2500.160156 L 1473.828125 2408.839844 C 1546.898438 2366.65625 1619.96875 2324.472656 1693.03125 2282.28125 L 1696.609375 2284.347656 "/>
<path fill-rule="nonzero" fill="rgb(80.076599%, 80.076599%, 80.076599%)" fill-opacity="1" d="M 1908.609375 2161.945312 L 2124.238281 2286.441406 L 2124.238281 2500.160156 L 2109.839844 2500.160156 L 2109.839844 2294.683594 L 2007.46875 2235.578125 L 1905.039062 2176.4375 L 1700.230469 2294.683594 L 1700.230469 2500.160156 L 1685.828125 2500.160156 L 1685.828125 2286.441406 C 1758.898438 2244.257812 1831.96875 2202.074219 1905.039062 2159.882812 L 1908.609375 2161.945312 "/>
<path fill-rule="nonzero" fill="rgb(80.076599%, 80.076599%, 80.076599%)" fill-opacity="1" d="M 2120.609375 2284.347656 L 2336.238281 2408.839844 L 2336.238281 2500.160156 L 2321.839844 2500.160156 L 2321.839844 2417.082031 L 2219.46875 2357.976562 L 2117.039062 2298.839844 L 1912.238281 2417.082031 L 1912.238281 2500.160156 L 1897.839844 2500.160156 L 1897.839844 2408.839844 L 2117.039062 2282.28125 L 2120.609375 2284.347656 "/>
<path fill-rule="nonzero" fill="rgb(80.076599%, 80.076599%, 80.076599%)" fill-opacity="1" d="M 2332.621094 2161.945312 L 2548.25 2286.441406 L 2548.25 2500.160156 L 2533.851562 2500.160156 L 2533.851562 2294.683594 L 2431.46875 2235.578125 L 2329.039062 2176.4375 L 2124.238281 2294.683594 L 2124.238281 2500.160156 L 2109.839844 2500.160156 L 2109.839844 2286.441406 C 2182.910156 2244.257812 2255.980469 2202.074219 2329.039062 2159.882812 L 2332.621094 2161.945312 "/>
<path fill-rule="nonzero" fill="rgb(80.076599%, 80.076599%, 80.076599%)" fill-opacity="1" d="M 2544.621094 2284.347656 L 2760.25 2408.839844 L 2760.25 2500.160156 L 2745.851562 2500.160156 L 2745.851562 2417.082031 L 2643.480469 2357.976562 L 2541.050781 2298.839844 L 2336.238281 2417.082031 L 2336.238281 2500.160156 L 2321.839844 2500.160156 L 2321.839844 2408.839844 C 2394.910156 2366.65625 2467.980469 2324.472656 2541.050781 2282.28125 L 2544.621094 2284.347656 "/>
<path fill-rule="nonzero" fill="rgb(80.076599%, 80.076599%, 80.076599%)" fill-opacity="1" d="M 2756.621094 2161.945312 L 2972.25 2286.441406 L 2972.25 2500.160156 L 2957.851562 2500.160156 L 2957.851562 2294.683594 L 2855.480469 2235.578125 L 2753.050781 2176.4375 L 2548.25 2294.683594 L 2548.25 2500.160156 L 2533.851562 2500.160156 L 2533.851562 2286.441406 C 2606.921875 2244.257812 2679.980469 2202.074219 2753.050781 2159.882812 L 2756.621094 2161.945312 "/>
<path fill-rule="nonzero" fill="rgb(80.076599%, 80.076599%, 80.076599%)" fill-opacity="1" d="M 2968.628906 2284.347656 L 3184.261719 2408.839844 L 3184.261719 2500.160156 L 3169.859375 2500.160156 L 3169.859375 2417.082031 L 3067.480469 2357.976562 L 2965.050781 2298.839844 L 2760.25 2417.082031 L 2760.25 2500.160156 L 2745.851562 2500.160156 L 2745.851562 2408.839844 C 2818.921875 2366.65625 2891.988281 2324.472656 2965.050781 2282.28125 L 2968.628906 2284.347656 "/>
<path fill-rule="nonzero" fill="rgb(80.076599%, 80.076599%, 80.076599%)" fill-opacity="1" d="M 3180.628906 2161.945312 L 3396.261719 2286.441406 L 3396.261719 2500.160156 L 3381.859375 2500.160156 L 3381.859375 2294.683594 L 3279.488281 2235.578125 L 3177.058594 2176.4375 L 2972.25 2294.683594 L 2972.25 2500.160156 L 2957.851562 2500.160156 L 2957.851562 2286.441406 C 3030.921875 2244.257812 3103.988281 2202.074219 3177.058594 2159.882812 L 3180.628906 2161.945312 "/>
<path fill-rule="nonzero" fill="rgb(80.076599%, 80.076599%, 80.076599%)" fill-opacity="1" d="M 3392.628906 2284.347656 L 3608.261719 2408.839844 L 3608.261719 2500.160156 L 3593.859375 2500.160156 L 3593.859375 2417.082031 L 3491.488281 2357.976562 L 3389.058594 2298.839844 L 3184.261719 2417.082031 L 3184.261719 2500.160156 L 3169.859375 2500.160156 L 3169.859375 2408.839844 C 3242.929688 2366.65625 3315.988281 2324.476562 3389.058594 2282.28125 L 3392.628906 2284.347656 "/>
<path fill-rule="nonzero" fill="rgb(80.076599%, 80.076599%, 80.076599%)" fill-opacity="1" d="M 3604.628906 2161.945312 L 3820.269531 2286.441406 L 3820.269531 2500.160156 L 3805.871094 2500.160156 L 3805.871094 2294.683594 L 3703.488281 2235.578125 L 3601.058594 2176.4375 L 3396.261719 2294.683594 L 3396.261719 2500.160156 L 3381.859375 2500.160156 L 3381.859375 2286.441406 C 3454.929688 2244.257812 3528 2202.074219 3601.058594 2159.882812 L 3604.628906 2161.945312 "/>
<path fill-rule="nonzero" fill="rgb(80.076599%, 80.076599%, 80.076599%)" fill-opacity="1" d="M 3816.640625 2284.347656 L 4032.269531 2408.839844 L 4032.269531 2500.160156 L 4017.871094 2500.160156 L 4017.871094 2417.082031 L 3915.5 2357.976562 L 3813.070312 2298.839844 L 3608.261719 2417.082031 L 3608.261719 2500.160156 L 3593.859375 2500.160156 L 3593.859375 2408.839844 C 3666.929688 2366.65625 3740 2324.472656 3813.070312 2282.28125 L 3816.640625 2284.347656 "/>
<path fill-rule="nonzero" fill="rgb(80.076599%, 80.076599%, 80.076599%)" fill-opacity="1" d="M 4028.640625 2161.945312 L 4244.269531 2286.441406 L 4244.269531 2500.160156 L 4229.871094 2500.160156 L 4229.871094 2294.683594 L 4127.5 2235.578125 L 4025.070312 2176.4375 L 3820.269531 2294.683594 L 3820.269531 2500.160156 L 3805.871094 2500.160156 L 3805.871094 2286.441406 C 3878.929688 2244.257812 3952 2202.074219 4025.070312 2159.882812 L 4028.640625 2161.945312 "/>
<path fill-rule="nonzero" fill="rgb(80.076599%, 80.076599%, 80.076599%)" fill-opacity="1" d="M 4240.640625 2284.347656 L 4445.261719 2402.480469 L 4445.261719 2500.160156 L 4441.878906 2500.160156 L 4441.878906 2417.082031 L 4339.5 2357.976562 L 4237.070312 2298.839844 L 4032.269531 2417.082031 L 4032.269531 2500.160156 L 4017.871094 2500.160156 L 4017.871094 2408.839844 C 4090.941406 2366.65625 4164.011719 2324.472656 4237.070312 2282.28125 L 4240.640625 2284.347656 "/>
<path fill-rule="nonzero" fill="rgb(80.076599%, 80.076599%, 80.076599%)" fill-opacity="1" d="M 4229.871094 2500.160156 L 4229.871094 2286.441406 C 4301.671875 2244.992188 4373.46875 2203.542969 4445.261719 2162.085938 L 4445.261719 2178.640625 L 4244.269531 2294.683594 L 4244.269531 2500.160156 L 4229.871094 2500.160156 "/>
<path fill-rule="nonzero" fill="rgb(80.076599%, 80.076599%, 80.076599%)" fill-opacity="1" d="M 4441.878906 2500.160156 L 4441.871094 2408.839844 L 4445.261719 2406.886719 L 4445.261719 2500.160156 L 4441.878906 2500.160156 "/>
</svg>
