<?xml version="1.0" encoding="UTF-8"?>
<svg xmlns="http://www.w3.org/2000/svg" xmlns:xlink="http://www.w3.org/1999/xlink" width="4446" height="2501" viewBox="0 0 4446 2501">

<path fill-rule="nonzero" fill="rgb(90.234375%, 90.234375%, 90.234375%)" fill-opacity="1" d="M 0.820312 334.269531 C 194.832031 218.230469 268.496094 99.339844 321.613281 13.53125 C 324.425781 8.980469 327.183594 4.53125 329.90625 0.160156 L 356.851562 0.160156 C 351.714844 8.21875 346.476562 16.679688 341.011719 25.511719 C 285.53125 115.140625 208.101562 240.121094 0.820312 360.910156 Z M 850.6875 0.160156 C 1146.210938 130.820312 1198.261719 160.878906 1246.109375 188.519531 C 1292.679688 215.421875 1335.28125 240.03125 1601.128906 355.621094 C 1837.351562 458.320312 2016.339844 491.089844 2149.488281 483.691406 C 2326.238281 473.871094 2421.210938 393.101562 2461.578125 312.359375 C 2483.011719 269.488281 2521.96875 203.941406 2575.070312 139.78125 C 2617.488281 88.519531 2669.039062 37.988281 2728.148438 0.160156 L 2773.378906 0.160156 C 2702.769531 37.261719 2641.589844 95.25 2592.679688 154.351562 C 2540.710938 217.140625 2502.769531 280.929688 2481.960938 322.550781 C 2438.558594 409.339844 2337.511719 496.109375 2150.75 506.480469 C 2014.421875 514.058594 1831.890625 480.828125 1592.019531 376.539062 C 1324.898438 260.398438 1281.800781 235.5 1234.671875 208.269531 C 1184.851562 179.488281 1130.429688 148.058594 794.128906 0.160156 Z M 3128.019531 0.160156 C 3146.53125 11.988281 3165.21875 25.628906 3184.070312 41.230469 C 3214.238281 66.199219 3248.789062 95.261719 3282.148438 123.328125 C 3574.289062 369.070312 3769.429688 533.21875 4059.53125 404.28125 C 4154.910156 361.890625 4289.601562 332.730469 4445.261719 314.75 L 4445.261719 337.660156 C 4292.980469 355.371094 4161.539062 383.871094 4068.738281 425.109375 C 3765.660156 559.808594 3566.160156 391.988281 3267.488281 140.761719 C 3237.890625 115.859375 3207.238281 90.070312 3169.5 58.839844 C 3139.929688 34.371094 3111 15.011719 3082.769531 0.160156 L 3128.019531 0.160156 "/>
<path fill-rule="nonzero" fill="rgb(90.234375%, 90.234375%, 90.234375%)" fill-opacity="1" d="M 0.820312 710.640625 C 240.835938 679.859375 529.191406 663.609375 882.632812 667.96875 C 1176.699219 671.601562 1457.339844 676.148438 1723.960938 680.859375 C 1407.898438 607.941406 1108.929688 545.089844 839.402344 495.738281 C 668.832031 504.761719 501.972656 513.878906 339.964844 523.351562 C 224.222656 530.109375 111.03125 537.050781 0.820312 544.25 L 0.820312 521.371094 C 110.632812 514.199219 223.40625 507.289062 338.714844 500.558594 C 469.746094 492.898438 604.132812 485.460938 741.195312 478.109375 C 551.59375 444.839844 378.253906 418.890625 225.710938 401.480469 C 151.644531 414.03125 76.59375 428.179688 0.820312 443.808594 L 0.820312 420.511719 C 48.730469 410.671875 96.359375 401.410156 143.632812 392.78125 C 93.386719 387.851562 45.699219 383.960938 0.820312 381.179688 L 0.820312 358.25 C 69.28125 362.460938 144.308594 369.28125 225.121094 378.480469 C 725.003906 294.148438 1180.820312 282.671875 1515.089844 382.359375 C 1568.398438 398.261719 1619.378906 414.191406 1668.199219 430.121094 C 1963.921875 414.820312 2264.699219 398.789062 2565.199219 380.980469 C 2319.789062 333.480469 2080.03125 259.328125 1838.78125 184.660156 C 1620.03125 116.949219 1400.03125 48.878906 1173.46875 0.160156 L 1276.441406 0.160156 C 1469.320312 46.441406 1657.859375 104.769531 1845.480469 162.839844 C 2116.730469 246.800781 2386.078125 330.089844 2663.820312 375.058594 C 3026.78125 353.039062 3388.410156 328.261719 3739.25 298.839844 C 3931.910156 234.148438 4132.519531 137.449219 4343.449219 0.160156 L 4385.75 0.160156 C 4290.109375 63.890625 4196.589844 119.328125 4104.960938 167.25 C 4163.75 167.820312 4268.710938 183.171875 4445.261719 214.128906 L 4445.261719 253.878906 C 4338.089844 265.730469 4229.128906 276.96875 4118.640625 287.640625 C 4126.230469 299.871094 4133.730469 313.011719 4140.550781 327.070312 C 4185.941406 420.609375 4199.800781 550.148438 4008.921875 703.160156 C 4171.839844 699.339844 4317.519531 692.851562 4445.261719 682.878906 L 4445.261719 705.371094 C 4309.25 715.988281 4153.390625 722.699219 3978.480469 726.449219 C 3954.191406 744.261719 3927.121094 762.371094 3896.949219 780.761719 C 4053.058594 815.25 4234.121094 863.910156 4445.261719 929.449219 L 4445.261719 953.289062 C 4220.789062 883.371094 4030.609375 832.578125 3868.511719 797.628906 C 3832.449219 818.511719 3792.449219 839.738281 3748.039062 861.28125 C 3547.648438 958.539062 3399.019531 1022.390625 3281.101562 1058.941406 C 3678.839844 1171.308594 4073.53125 1290.101562 4445.261719 1409.820312 L 4445.261719 1444.390625 C 4421.019531 1460.539062 4398.179688 1476.601562 4376.640625 1492.550781 C 4399.488281 1499.261719 4422.359375 1506.171875 4445.261719 1513.269531 L 4445.261719 1537.207031 C 4414.75 1527.707031 4384.28125 1518.535156 4353.871094 1509.742188 C 4348.398438 1513.957031 4343.011719 1518.164062 4337.71875 1522.363281 C 4194.238281 1636.117188 4113.921875 1744.863281 4062.140625 1843.597656 C 4199.628906 1838.785156 4325.011719 1848.085938 4445.261719 1869.09375 L 4445.261719 1892.679688 C 4321.53125 1870.824219 4192.421875 1861.445312 4050.191406 1867.207031 C 4021.339844 1926.28125 4002.03125 1981.503906 3984.46875 2031.730469 C 3976.730469 2053.871094 3969.308594 2075.042969 3961.601562 2095.214844 L 3963.710938 2095.964844 C 4129.019531 2154.65625 4289.480469 2211.628906 4445.261719 2264.984375 L 4445.261719 2289.125 C 4287.070312 2235.011719 4124.078125 2177.148438 3956.109375 2117.507812 L 3953.191406 2116.46875 C 3862.839844 2336.046875 3707.109375 2420.203125 2593.691406 2240.847656 C 2459.121094 2293.789062 2346.589844 2342.671875 2247.378906 2385.769531 C 2157.078125 2424.996094 2077.75 2459.445312 2002.839844 2487.882812 L 2049.269531 2496.496094 L 2069.011719 2500.160156 L 1898.210938 2500.160156 C 1903.75 2498.417969 1909.289062 2496.652344 1914.851562 2494.832031 C 1632.589844 2442.996094 1346.128906 2394.023438 1029.828125 2366.714844 C 986.796875 2384.246094 945.042969 2401.351562 904.417969 2418 L 879.652344 2428.144531 C 983.332031 2457.707031 1075.789062 2481.539062 1159.480469 2500.160156 L 1060.089844 2500.160156 C 993.988281 2483.714844 922.828125 2464.433594 845.597656 2442.089844 C 804.347656 2458.964844 764.234375 2475.316406 725.066406 2491.113281 C 734.964844 2494.160156 744.855469 2497.171875 754.734375 2500.160156 L 641.003906 2500.160156 C 646.308594 2498.058594 651.628906 2495.949219 656.96875 2493.824219 C 626.171875 2484.078125 595.28125 2474.089844 564.257812 2463.746094 C 441.65625 2422.878906 310.105469 2386.402344 171.488281 2354.050781 C 111.53125 2357.550781 54.734375 2361.972656 0.820312 2367.253906 L 0.820312 2344.3125 C 30.738281 2341.40625 61.535156 2338.757812 93.257812 2336.386719 C 62.753906 2329.726562 31.933594 2323.257812 0.820312 2316.976562 L 0.820312 2293.765625 C 59.367188 2305.539062 116.878906 2317.972656 173.230469 2331.085938 C 199.132812 2329.585938 225.632812 2328.261719 252.722656 2327.109375 C 334.222656 2323.640625 413.386719 2321.867188 490.519531 2321.566406 C 248.003906 2223.8125 106.90625 2128.429688 0.820312 2053.320312 L 0.820312 2025.339844 C 114.902344 2106.402344 268.683594 2213.335938 553.320312 2321.644531 C 719.558594 2322.730469 876.339844 2330.675781 1026.371094 2343.496094 C 1226.578125 2261.972656 1454.460938 2171.394531 1725.910156 2075.453125 C 1178.171875 1945.621094 825.757812 1798.519531 574.976562 1667.679688 C 555.695312 1676.4375 536.175781 1685.339844 516.289062 1694.417969 C 369.773438 1761.296875 205.382812 1836.328125 0.820312 1912.410156 L 0.820312 1888.058594 C 201.085938 1813.222656 362.636719 1739.488281 506.816406 1673.679688 C 521.199219 1667.113281 535.378906 1660.644531 549.4375 1654.242188 C 433.957031 1592.839844 340.554688 1535.339844 259.273438 1485.308594 C 161.242188 1424.960938 81.097656 1375.648438 0.820312 1343.78125 L 0.820312 1305.800781 C 844.953125 1281.78125 1502.058594 1267.351562 1688.328125 1355.578125 C 1762.410156 1390.671875 1821.199219 1429.371094 1870.398438 1468.679688 C 1970.019531 1485.820312 2078.390625 1508.34375 2197.339844 1536.847656 C 2071.320312 1461.71875 1887.089844 1384.460938 1660.839844 1306.53125 C 1570.960938 1295.949219 1473.308594 1281.539062 1366.828125 1262.75 C 1239.71875 1240.320312 1136.53125 1220.910156 1050.050781 1204.660156 C 827.917969 1162.890625 717.386719 1142.109375 543.253906 1135.351562 C 417.585938 1130.46875 258.546875 1132.839844 0.820312 1139.859375 L 0.820312 1117.050781 C 258.726562 1110.03125 417.976562 1107.660156 544.058594 1112.550781 C 720.078125 1119.390625 831.109375 1140.261719 1054.25 1182.21875 C 1139.078125 1198.171875 1240.300781 1217.199219 1370.769531 1240.21875 C 1432.871094 1251.179688 1491.921875 1260.640625 1548.148438 1268.710938 C 1124.199219 1130.359375 577.511719 990.71875 0.820312 858.070312 L 0.820312 835.109375 C 625.203125 979.03125 1215.351562 1131.609375 1654.859375 1282.789062 C 2423.949219 1375.019531 2613.410156 1183.769531 2775.621094 999.441406 C 2743.789062 979.898438 2710.160156 957.898438 2673.308594 933.78125 C 2658.960938 924.378906 2644.101562 914.648438 2628.679688 904.640625 C 2356.558594 833.179688 2088.148438 766.21875 1829.949219 705.558594 C 1531.828125 700.179688 1215.640625 694.878906 882.363281 690.769531 C 528.585938 686.398438 240.378906 702.738281 0.820312 733.660156 Z M 4445.261719 2465.351562 C 4406.558594 2477.207031 4367.78125 2488.816406 4328.929688 2500.160156 L 4245.679688 2500.160156 C 4312.429688 2481.347656 4378.949219 2461.734375 4445.261719 2441.386719 Z M 2795.460938 1011.429688 C 2635.871094 1193.019531 2453.640625 1382.859375 1748.878906 1315.929688 C 1969.160156 1395.679688 2144.71875 1474.820312 2258.878906 1551.90625 C 2331.191406 1569.921875 2407.179688 1589.992188 2487.46875 1612.367188 C 2562.289062 1633.21875 2636.308594 1654.59375 2709.550781 1676.378906 C 2819.679688 1633.890625 2950.800781 1575.703125 3108.75 1498.660156 C 3487.78125 1313.761719 3913.03125 1359.710938 4349.171875 1484.589844 C 4373.789062 1465.921875 4400.089844 1447.148438 4428.199219 1428.300781 C 4048.730469 1306.230469 3645.578125 1185.140625 3239.898438 1070.941406 C 3041.578125 1124.738281 2933.519531 1093.378906 2795.460938 1011.429688 Z M 2790.980469 981.960938 C 2799.128906 972.660156 2807.28125 963.410156 2815.449219 954.21875 C 2776.511719 943.769531 2737.628906 933.410156 2698.800781 923.140625 C 2731.738281 944.691406 2762.101562 964.398438 2790.980469 981.960938 Z M 2832.519531 935.261719 C 2916.378906 843.371094 3009.488281 761.859375 3182.449219 728.121094 C 2929.21875 725.46875 2652.898438 720.699219 2354.878906 715.230469 C 2470.46875 776.691406 2561.558594 833.828125 2638.410156 883.699219 C 2702.941406 900.648438 2767.660156 917.828125 2832.519531 935.261719 Z M 3620.078125 730.300781 C 3693.769531 740.320312 3774.808594 754.550781 3864.410156 773.640625 C 3891.191406 757.941406 3915.609375 742.480469 3937.871094 727.269531 C 3837.898438 729.128906 3731.910156 730.078125 3620.078125 730.300781 Z M 3834.808594 790.558594 C 3194.78125 658.121094 3006.871094 781.179688 2857.378906 941.980469 C 2984.390625 976.210938 3111.800781 1011.261719 3238.96875 1047.019531 C 3360.769531 1013.769531 3517.488281 947.800781 3738.121094 840.71875 C 3773.089844 823.761719 3805.238281 807.03125 3834.808594 790.558594 Z M 2840.121094 960.871094 C 2830.320312 971.75 2820.621094 982.761719 2810.898438 993.839844 C 2931.671875 1064.519531 3030.308594 1094.359375 3194.171875 1058.128906 C 3076.121094 1025.058594 2957.941406 992.589844 2840.121094 960.871094 Z M 4323.511719 1504.484375 L 4326.691406 1501.972656 C 3900.71875 1381.941406 3486.46875 1339.851562 3118.761719 1519.21875 C 2973.460938 1590.097656 2850.359375 1645.242188 2745.101562 1687.007812 C 3002.890625 1764.425781 3250.890625 1846.761719 3489.539062 1929.183594 C 3695.820312 1879.324219 3874.300781 1852.390625 4035.789062 1844.71875 C 4088.359375 1740.742188 4170.960938 1625.429688 4323.511719 1504.484375 Z M 3962.929688 2024.222656 C 3979.648438 1976.402344 3997.929688 1924.144531 4024.230469 1868.386719 C 3876.550781 1876.191406 3714.449219 1900.1875 3529.75 1943.097656 C 3669.710938 1991.644531 3806.441406 2040.128906 3940.039062 2087.558594 C 3947.78125 2067.488281 3955.191406 2046.355469 3962.929688 2024.222656 Z M 2549.828125 2233.726562 C 2449.289062 2217.285156 2341.339844 2198.816406 2225.011719 2178.136719 C 2059 2148.621094 1906.871094 2117.445312 1767.160156 2085.128906 C 1499.859375 2178.785156 1274.351562 2267.523438 1076.019531 2347.9375 C 1390.519531 2377.3125 1676.171875 2427.535156 1958.808594 2479.734375 C 2044.039062 2449.246094 2133.75 2410.289062 2238.351562 2364.851562 C 2328.898438 2325.519531 2430.53125 2281.375 2549.828125 2233.726562 Z M 2228.941406 2155.609375 C 2359.988281 2178.90625 2480.308594 2199.402344 2591.21875 2217.339844 C 2773.960938 2145.621094 2997.121094 2066.539062 3282.261719 1984.285156 C 3339.75 1967.703125 3395.140625 1952.742188 3448.691406 1939.261719 C 3211.820312 1857.765625 2965.859375 1776.601562 2710.519531 1700.480469 C 2579.460938 1750.675781 2477.460938 1778.925781 2395.390625 1790.109375 C 2364.101562 1857.144531 2265.789062 1920.054688 2087.429688 1977.492188 C 1989.371094 2009.070312 1896.351562 2040.261719 1807.839844 2070.953125 C 1937.351562 2100.289062 2077.28125 2128.648438 2228.941406 2155.609375 Z M 2635.660156 2224.488281 C 3691.550781 2392.464844 3845.511719 2313.675781 3931.5 2108.769531 C 3787.460938 2057.632812 3639.769531 2005.273438 3488.359375 1952.941406 C 3424.53125 1968.449219 3358.070312 1986.125 3288.519531 2006.1875 C 3022.820312 2082.832031 2811.03125 2156.746094 2635.660156 2224.488281 Z M 271.253906 1465.820312 C 355.800781 1517.863281 453.5625 1578.03125 575.804688 1642.261719 C 952.710938 1471.390625 1228.359375 1366.351562 1822.078125 1460.691406 C 1781.378906 1431.28125 1734.398438 1402.671875 1678.589844 1376.230469 C 1498.601562 1290.96875 854.101562 1304.410156 23.855469 1327.949219 C 100.3125 1360.621094 177.84375 1408.320312 271.253906 1465.820312 Z M 601.519531 1655.660156 C 855.398438 1786.507812 1212.480469 1932.839844 1765.988281 2061.363281 C 1864.871094 2026.773438 1969.441406 1991.519531 2080.460938 1955.769531 C 2241.121094 1904.03125 2333.339844 1849.613281 2367.820312 1793.28125 C 2176.699219 1811.328125 2099.609375 1729.6875 1998.578125 1622.539062 C 1959.261719 1580.84375 1916.210938 1535.179688 1860.738281 1490.28125 C 1252.621094 1386.839844 974.734375 1487.140625 601.519531 1655.660156 Z M 1832.328125 682.800781 C 1944.539062 684.820312 2054.179688 686.859375 2161.191406 688.851562 L 2256.828125 690.621094 C 2104.070312 614.960938 1912.648438 534.109375 1665.050781 453.140625 C 1561.511719 458.5 1458.570312 463.761719 1356.511719 468.988281 C 1214.460938 476.261719 1074.058594 483.441406 935.925781 490.660156 C 1211.121094 542.890625 1513.898438 608.03125 1832.328125 682.800781 Z M 2160.839844 711.640625 C 2087.320312 710.28125 2012.558594 708.890625 1936.589844 707.5 C 2141.929688 756.53125 2353.070312 809.339844 2566.808594 864.988281 C 2493.890625 819.019531 2408.398438 768.148438 2303.710938 714.289062 C 2256.640625 713.421875 2209 712.53125 2160.839844 711.640625 Z M 2309.609375 691.589844 C 2974.660156 703.859375 3532.589844 713.019531 3970.511719 704.011719 C 4174.210938 552.25 4163.410156 426.46875 4119.988281 336.988281 C 4111.828125 320.179688 4102.460938 304.488281 4093.109375 290.078125 C 3979.308594 300.960938 3863.988281 311.28125 3747.449219 321.070312 C 3359.871094 451.578125 3004.179688 453.820312 2661.171875 398.089844 C 2348.929688 417.011719 2035.761719 433.878906 1727.710938 449.890625 C 1972.691406 532.769531 2160.441406 615.128906 2309.609375 691.589844 Z M 4039.710938 200.269531 C 3969.101562 234.808594 3899.609375 264.941406 3831.128906 291.019531 C 3914.351562 283.808594 3996.859375 276.308594 4078.621094 268.519531 C 4076.289062 265.148438 4074.011719 261.871094 4071.789062 258.679688 C 4055.25 234.921875 4042.058594 215.980469 4039.710938 200.269531 Z M 2775.820312 391.050781 C 3050.621094 424.390625 3334.851562 415.890625 3638.210938 330.058594 C 3355.441406 352.921875 3066.359375 372.941406 2775.820312 391.050781 Z M 1905.488281 1498.148438 C 1947.75 1535.367188 1982.730469 1572.460938 2015.199219 1606.894531 C 2113.28125 1710.910156 2187.800781 1789.925781 2379.238281 1768.523438 C 2385.238281 1749.425781 2384.921875 1730.128906 2378.648438 1710.652344 C 2364.441406 1666.527344 2322.160156 1621.105469 2256.171875 1574.753906 C 2128.019531 1542.78125 2011.800781 1517.453125 1905.488281 1498.148438 Z M 2403.890625 1765.269531 C 2476.078125 1754.550781 2564.070312 1730.515625 2674.261719 1689.722656 C 2610.550781 1670.917969 2546.269531 1652.4375 2481.390625 1634.355469 C 2421.101562 1617.554688 2363.300781 1602.089844 2307.589844 1587.777344 C 2356.289062 1627.085938 2388.171875 1665.796875 2400.371094 1703.679688 C 2407.089844 1724.535156 2408.359375 1745.078125 2403.890625 1765.269531 Z M 828.460938 2413.375 C 833.808594 2414.9375 839.027344 2416.441406 844.304688 2417.96875 C 861.265625 2411.027344 878.378906 2404.019531 895.746094 2396.902344 C 923.160156 2385.671875 951.089844 2374.226562 979.570312 2362.585938 C 863.382812 2353.507812 743.074219 2347.421875 617.402344 2345.238281 C 681.390625 2368.042969 751.441406 2390.832031 828.460938 2413.375 Z M 810.425781 2431.820312 C 712.6875 2402.921875 626.164062 2373.636719 549.078125 2344.433594 C 453.863281 2343.875 355.554688 2345.566406 253.617188 2349.90625 L 251.734375 2349.992188 C 363.613281 2377.839844 470.53125 2408.488281 571.410156 2442.113281 C 611.253906 2455.394531 650.902344 2468.175781 690.375 2480.480469 C 729.402344 2464.828125 769.359375 2448.59375 810.425781 2431.820312 Z M 1508.570312 404.261719 C 1195.078125 310.761719 772.746094 316.210938 307.019531 388.300781 C 466.355469 408.570312 645.722656 437.191406 840.378906 472.828125 C 1008.71875 463.929688 1180.78125 455.121094 1355.351562 446.191406 C 1437.621094 441.980469 1520.46875 437.738281 1603.730469 433.449219 C 1572.859375 423.710938 1541.160156 413.980469 1508.570312 404.261719 Z M 4090.558594 245.628906 C 4095.03125 252.058594 4099.769531 258.859375 4104.621094 266.050781 C 4212.738281 255.648438 4319.421875 244.71875 4424.398438 233.210938 C 4146.929688 183.839844 4065.851562 174.851562 4062.199219 194.679688 C 4060.710938 202.75 4073.539062 221.179688 4090.558594 245.628906 "/>
<path fill-rule="nonzero" fill="rgb(90.234375%, 90.234375%, 90.234375%)" fill-opacity="1" d="M 0.820312 70.191406 C 240.835938 39.410156 529.191406 23.148438 882.632812 27.519531 C 1176.699219 31.148438 1457.339844 35.699219 1723.960938 40.410156 C 1664.210938 26.628906 1605.078125 13.199219 1546.628906 0.160156 L 1649.820312 0.160156 C 1710.019531 13.851562 1770.878906 27.921875 1832.328125 42.351562 C 1944.539062 44.371094 2054.179688 46.410156 2161.191406 48.390625 L 2256.828125 50.171875 C 2223.640625 33.71875 2188.621094 17.039062 2151.589844 0.160156 L 2205.960938 0.160156 C 2242.480469 17.398438 2276.96875 34.410156 2309.609375 51.140625 C 2974.660156 63.410156 3532.589844 72.570312 3970.511719 63.550781 C 3999.601562 41.878906 4024.300781 20.738281 4045.171875 0.160156 L 4077.238281 0.160156 C 4058.128906 20.53125 4035.519531 41.390625 4008.921875 62.710938 C 4171.839844 58.890625 4317.519531 52.398438 4445.261719 42.429688 L 4445.261719 64.910156 C 4309.25 75.539062 4153.390625 82.238281 3978.480469 86 C 3954.191406 103.808594 3927.121094 121.910156 3896.949219 140.300781 C 4053.058594 174.800781 4234.121094 223.460938 4445.261719 289 L 4445.261719 312.839844 C 4220.789062 242.921875 4030.609375 192.121094 3868.511719 157.179688 C 3832.449219 178.058594 3792.449219 199.28125 3748.039062 220.828125 C 3547.648438 318.078125 3399.019531 381.941406 3281.101562 418.480469 C 3678.839844 530.851562 4073.53125 649.648438 4445.261719 769.359375 L 4445.261719 803.941406 C 4421.019531 820.089844 4398.179688 836.148438 4376.640625 852.101562 C 4399.488281 858.808594 4422.359375 865.71875 4445.261719 872.820312 L 4445.261719 896.75 C 4414.75 887.25 4384.28125 878.078125 4353.871094 869.289062 C 4348.398438 873.5 4343.011719 877.710938 4337.71875 881.910156 C 4194.238281 995.660156 4113.921875 1104.410156 4062.140625 1203.140625 C 4199.628906 1198.328125 4325.011719 1207.628906 4445.261719 1228.640625 L 4445.261719 1252.21875 C 4321.53125 1230.371094 4192.421875 1220.988281 4050.191406 1226.75 C 4021.339844 1285.828125 4002.03125 1341.050781 3984.46875 1391.28125 C 3976.730469 1413.421875 3969.308594 1434.589844 3961.601562 1454.761719 L 3963.710938 1455.511719 C 4129.019531 1514.203125 4289.480469 1571.175781 4445.261719 1624.53125 L 4445.261719 1648.671875 C 4287.070312 1594.558594 4124.078125 1536.695312 3956.109375 1477.050781 L 3953.191406 1476.019531 C 3862.839844 1695.59375 3707.109375 1779.753906 2593.691406 1600.394531 C 2459.121094 1653.335938 2346.589844 1702.21875 2247.378906 1745.316406 C 2157.078125 1784.542969 2077.75 1818.992188 2002.839844 1847.429688 L 2049.269531 1856.042969 C 2500.578125 1939.820312 2951.300781 2023.46875 3507.21875 2029.519531 C 3826.320312 1973.769531 4137.96875 1895.222656 4445.261719 1800.933594 L 4445.261719 1824.898438 C 4178.058594 1906.746094 3907.550781 1976.71875 3631.660156 2030.117188 C 3870.730469 2031.902344 4147.628906 2043.902344 4445.261719 2059.796875 L 4445.261719 2064.496094 L 4066.21875 2064.496094 C 3888.121094 2057.242188 3721.679688 2052.765625 3571.449219 2052.765625 C 3550.800781 2052.765625 3530.308594 2052.648438 3509.941406 2052.4375 C 3486.140625 2056.589844 3462.300781 2060.597656 3438.421875 2064.496094 L 3284.710938 2064.496094 C 3318.140625 2059.851562 3351.5 2054.976562 3384.761719 2049.8125 C 2882.519531 2033.914062 2464.101562 1956.246094 2045.160156 1878.480469 C 2017.089844 1873.269531 1989.011719 1868.058594 1960.898438 1862.863281 C 1671.46875 1965.769531 1432.089844 1971.339844 845.597656 1801.636719 C 804.347656 1818.511719 764.234375 1834.863281 725.066406 1850.660156 C 1052.109375 1951.203125 1367.519531 2020.964844 1673.289062 2064.496094 L 1523.789062 2064.496094 C 1254.359375 2019.15625 977.347656 1953.398438 691.429688 1864.183594 C 472.808594 1951.746094 282.953125 2021.027344 89.480469 2064.496094 L 0.820312 2064.496094 L 0.820312 2059.070312 C 215.152344 2019.808594 419.40625 1947.871094 656.96875 1853.371094 C 626.171875 1843.628906 595.28125 1833.636719 564.257812 1823.292969 C 441.65625 1782.425781 310.105469 1745.949219 171.488281 1713.597656 C 111.53125 1717.097656 54.734375 1721.519531 0.820312 1726.800781 L 0.820312 1703.859375 C 30.738281 1700.953125 61.535156 1698.304688 93.257812 1695.933594 C 62.753906 1689.273438 31.933594 1682.804688 0.820312 1676.523438 L 0.820312 1653.3125 C 59.367188 1665.085938 116.878906 1677.519531 173.230469 1690.632812 C 199.132812 1689.132812 225.632812 1687.808594 252.722656 1686.65625 C 334.222656 1683.1875 413.386719 1681.414062 490.519531 1681.113281 C 248.003906 1583.359375 106.90625 1487.980469 0.820312 1412.871094 L 0.820312 1384.890625 C 114.902344 1465.949219 268.683594 1572.882812 553.320312 1681.191406 C 719.558594 1682.28125 876.339844 1690.222656 1026.371094 1703.039062 C 1226.578125 1621.519531 1454.460938 1530.941406 1725.910156 1435 C 1178.171875 1305.171875 825.757812 1158.070312 574.976562 1027.230469 C 555.695312 1035.980469 536.175781 1044.890625 516.289062 1053.960938 C 369.773438 1120.839844 205.382812 1195.871094 0.820312 1271.960938 L 0.820312 1247.601562 C 201.085938 1172.769531 362.636719 1099.039062 506.816406 1033.21875 C 521.199219 1026.660156 535.378906 1020.191406 549.4375 1013.789062 C 433.957031 952.390625 340.554688 894.890625 259.273438 844.859375 C 161.242188 784.511719 81.097656 735.191406 0.820312 703.328125 L 0.820312 665.339844 C 844.953125 641.328125 1502.058594 626.898438 1688.328125 715.128906 C 1762.410156 750.21875 1821.199219 788.921875 1870.398438 828.230469 C 1970.019531 845.359375 2078.390625 867.890625 2197.339844 896.390625 C 2071.320312 821.261719 1887.089844 744 1660.839844 666.070312 C 1570.960938 655.488281 1473.308594 641.089844 1366.828125 622.300781 C 1239.71875 599.859375 1136.53125 580.460938 1050.050781 564.199219 C 827.917969 522.441406 717.386719 501.660156 543.253906 494.898438 C 417.585938 490.019531 258.546875 492.390625 0.820312 499.410156 L 0.820312 476.589844 C 258.726562 469.570312 417.976562 467.210938 544.058594 472.101562 C 720.078125 478.929688 831.109375 499.808594 1054.25 541.769531 C 1139.078125 557.710938 1240.300781 576.75 1370.769531 599.769531 C 1432.871094 610.730469 1491.921875 620.191406 1548.148438 628.261719 C 1124.199219 489.910156 577.511719 350.269531 0.820312 217.621094 L 0.820312 194.648438 C 625.203125 338.578125 1215.351562 491.148438 1654.859375 642.339844 C 2423.949219 734.570312 2613.410156 543.320312 2775.621094 358.988281 C 2743.789062 339.449219 2710.160156 317.449219 2673.308594 293.320312 C 2658.960938 283.929688 2644.101562 274.199219 2628.679688 264.191406 C 2356.558594 192.730469 2088.148438 125.769531 1829.949219 65.109375 C 1531.828125 59.730469 1215.640625 54.429688 882.363281 50.308594 C 528.585938 45.949219 240.378906 62.289062 0.820312 93.199219 Z M 2795.460938 370.96875 C 2635.871094 552.570312 2453.640625 742.398438 1748.878906 675.46875 C 1969.160156 755.21875 2144.71875 834.371094 2258.878906 911.449219 C 2331.191406 929.46875 2407.179688 949.539062 2487.46875 971.910156 C 2562.289062 992.761719 2636.308594 1014.140625 2709.550781 1035.921875 C 2819.679688 993.441406 2950.800781 935.25 3108.75 858.199219 C 3487.78125 673.308594 3913.03125 719.261719 4349.171875 844.140625 C 4373.789062 825.46875 4400.089844 806.699219 4428.199219 787.851562 C 4048.730469 665.78125 3645.578125 544.691406 3239.898438 430.488281 C 3041.578125 484.28125 2933.519531 452.929688 2795.460938 370.96875 Z M 2790.980469 341.511719 C 2799.128906 332.210938 2807.28125 322.949219 2815.449219 313.769531 C 2776.511719 303.320312 2737.628906 292.960938 2698.800781 282.679688 C 2731.738281 304.230469 2762.101562 323.949219 2790.980469 341.511719 Z M 2832.519531 294.808594 C 2916.378906 202.910156 3009.488281 121.410156 3182.449219 87.671875 C 2929.21875 85.011719 2652.898438 80.238281 2354.878906 74.769531 C 2470.46875 136.238281 2561.558594 193.371094 2638.410156 243.238281 C 2702.941406 260.191406 2767.660156 277.378906 2832.519531 294.808594 Z M 3620.078125 89.851562 C 3693.769531 99.859375 3774.808594 114.101562 3864.410156 133.191406 C 3891.191406 117.488281 3915.609375 102.03125 3937.871094 86.820312 C 3837.898438 88.679688 3731.910156 89.628906 3620.078125 89.851562 Z M 3834.808594 150.101562 C 3194.78125 17.671875 3006.871094 140.730469 2857.378906 301.519531 C 2984.390625 335.75 3111.800781 370.808594 3238.96875 406.570312 C 3360.769531 373.320312 3517.488281 307.351562 3738.121094 200.269531 C 3773.089844 183.300781 3805.238281 166.578125 3834.808594 150.101562 Z M 2840.121094 320.421875 C 2830.320312 331.300781 2820.621094 342.308594 2810.898438 353.378906 C 2931.671875 424.070312 3030.308594 453.910156 3194.171875 417.671875 C 3076.121094 384.609375 2957.941406 352.140625 2840.121094 320.421875 Z M 4323.511719 864.03125 L 4326.691406 861.519531 C 3900.71875 741.488281 3486.46875 699.390625 3118.761719 878.761719 C 2973.460938 949.640625 2850.359375 1004.789062 2745.101562 1046.558594 C 3002.890625 1123.96875 3250.890625 1206.308594 3489.539062 1288.730469 C 3695.820312 1238.871094 3874.300781 1211.941406 4035.789062 1204.261719 C 4088.359375 1100.289062 4170.960938 984.96875 4323.511719 864.03125 Z M 3962.929688 1383.769531 C 3979.648438 1335.949219 3997.929688 1283.691406 4024.230469 1227.929688 C 3876.550781 1235.738281 3714.449219 1259.730469 3529.75 1302.640625 C 3669.710938 1351.191406 3806.441406 1399.679688 3940.039062 1447.109375 C 3947.78125 1427.039062 3955.191406 1405.898438 3962.929688 1383.769531 Z M 2549.828125 1593.273438 C 2449.289062 1576.832031 2341.339844 1558.363281 2225.011719 1537.683594 C 2059 1508.171875 1906.871094 1476.988281 1767.160156 1444.679688 C 1499.859375 1538.332031 1274.351562 1627.070312 1076.019531 1707.484375 C 1390.519531 1736.859375 1676.171875 1787.082031 1958.808594 1839.28125 C 2044.039062 1808.792969 2133.75 1769.839844 2238.351562 1724.398438 C 2328.898438 1685.066406 2430.53125 1640.921875 2549.828125 1593.273438 Z M 2228.941406 1515.15625 C 2359.988281 1538.453125 2480.308594 1558.949219 2591.21875 1576.886719 C 2773.960938 1505.167969 2997.121094 1426.089844 3282.261719 1343.828125 C 3339.75 1327.25 3395.140625 1312.289062 3448.691406 1298.808594 C 3211.820312 1217.308594 2965.859375 1136.148438 2710.519531 1060.03125 C 2579.460938 1110.21875 2477.460938 1138.46875 2395.390625 1149.660156 C 2364.101562 1216.691406 2265.789062 1279.601562 2087.429688 1337.039062 C 1989.371094 1368.621094 1896.351562 1399.808594 1807.839844 1430.5 C 1937.351562 1459.828125 2077.28125 1488.191406 2228.941406 1515.15625 Z M 2635.660156 1584.035156 C 3691.550781 1752.011719 3845.511719 1673.222656 3931.5 1468.320312 C 3787.460938 1417.179688 3639.769531 1364.820312 3488.359375 1312.488281 C 3424.53125 1327.988281 3358.070312 1345.671875 3288.519531 1365.730469 C 3022.820312 1442.378906 2811.03125 1516.289062 2635.660156 1584.035156 Z M 271.253906 825.371094 C 355.800781 877.410156 453.5625 937.578125 575.804688 1001.808594 C 952.710938 830.941406 1228.359375 725.898438 1822.078125 820.230469 C 1781.378906 790.828125 1734.398438 762.21875 1678.589844 735.78125 C 1498.601562 650.519531 854.101562 663.960938 23.855469 687.5 C 100.3125 720.160156 177.84375 767.871094 271.253906 825.371094 Z M 601.519531 1015.210938 C 855.398438 1146.058594 1212.480469 1292.390625 1765.988281 1420.910156 C 1864.871094 1386.320312 1969.441406 1351.070312 2080.460938 1315.320312 C 2241.121094 1263.578125 2333.339844 1209.160156 2367.820312 1152.828125 C 2176.699219 1170.871094 2099.609375 1089.230469 1998.578125 982.089844 C 1959.261719 940.390625 1916.210938 894.730469 1860.738281 849.820312 C 1252.621094 746.390625 974.734375 846.691406 601.519531 1015.210938 Z M 2160.839844 71.191406 C 2087.320312 69.820312 2012.558594 68.441406 1936.589844 67.039062 C 2141.929688 116.078125 2353.070312 168.878906 2566.808594 224.539062 C 2493.890625 178.570312 2408.398438 127.691406 2303.710938 73.828125 C 2256.640625 72.96875 2209 72.078125 2160.839844 71.191406 Z M 1905.488281 857.699219 C 1947.75 894.921875 1982.730469 932.011719 2015.199219 966.441406 C 2113.28125 1070.460938 2187.800781 1149.46875 2379.238281 1128.070312 C 2385.238281 1108.96875 2384.921875 1089.671875 2378.648438 1070.199219 C 2364.441406 1026.078125 2322.160156 980.648438 2256.171875 934.300781 C 2128.019531 902.328125 2011.800781 877 1905.488281 857.699219 Z M 2403.890625 1124.820312 C 2476.078125 1114.101562 2564.070312 1090.058594 2674.261719 1049.269531 C 2610.550781 1030.46875 2546.269531 1011.980469 2481.390625 993.898438 C 2421.101562 977.101562 2363.300781 961.628906 2307.589844 947.320312 C 2356.289062 986.628906 2388.171875 1025.339844 2400.371094 1063.230469 C 2407.089844 1084.078125 2408.359375 1104.621094 2403.890625 1124.820312 Z M 828.460938 1772.921875 C 833.808594 1774.484375 839.027344 1775.988281 844.304688 1777.519531 C 861.265625 1770.574219 878.378906 1763.566406 895.746094 1756.449219 C 923.160156 1745.21875 951.089844 1733.773438 979.570312 1722.132812 C 863.382812 1713.054688 743.074219 1706.96875 617.402344 1704.785156 C 681.390625 1727.589844 751.441406 1750.378906 828.460938 1772.921875 Z M 879.652344 1787.691406 C 1413.03125 1939.777344 1650.5 1940.894531 1914.851562 1854.378906 C 1632.589844 1802.542969 1346.128906 1753.570312 1029.828125 1726.261719 C 986.796875 1743.789062 945.042969 1760.898438 904.417969 1777.546875 Z M 810.425781 1791.367188 C 712.6875 1762.46875 626.164062 1733.179688 549.078125 1703.980469 C 453.863281 1703.421875 355.554688 1705.113281 253.617188 1709.453125 L 251.734375 1709.539062 C 363.613281 1737.386719 470.53125 1768.035156 571.410156 1801.660156 C 611.253906 1814.941406 650.902344 1827.722656 690.375 1840.027344 C 729.402344 1824.371094 769.359375 1808.140625 810.425781 1791.367188 "/>
<path fill-rule="nonzero" fill="rgb(90.234375%, 90.234375%, 90.234375%)" fill-opacity="1" d="M 0.820312 1410.71875 C 194.832031 1294.671875 268.496094 1175.78125 321.613281 1089.96875 C 405.625 954.238281 441.148438 896.851562 774.5625 1043.089844 C 1137.859375 1202.421875 1194.410156 1235.089844 1246.109375 1264.960938 C 1292.679688 1291.859375 1335.28125 1316.46875 1601.128906 1432.058594 C 1837.351562 1534.761719 2016.339844 1567.527344 2149.488281 1560.132812 C 2326.238281 1550.3125 2421.210938 1469.539062 2461.578125 1388.800781 C 2483.011719 1345.941406 2521.96875 1280.378906 2575.070312 1216.21875 C 2632 1147.429688 2705.371094 1079.941406 2791.390625 1042.730469 C 2878.320312 1005.128906 2977.691406 998.480469 3085.429688 1052.351562 C 3117.71875 1068.5 3150.640625 1090.011719 3184.070312 1117.671875 C 3214.238281 1142.640625 3248.789062 1171.699219 3282.148438 1199.769531 C 3574.289062 1445.511719 3769.429688 1609.660156 4059.53125 1480.730469 C 4154.910156 1438.328125 4289.601562 1409.179688 4445.261719 1391.191406 L 4445.261719 1414.109375 C 4292.980469 1431.808594 4161.539062 1460.308594 4068.738281 1501.554688 C 3765.660156 1636.253906 3566.160156 1468.441406 3267.488281 1217.199219 C 3237.890625 1192.300781 3207.238281 1166.511719 3169.5 1135.28125 C 3137.289062 1108.621094 3105.839844 1088.03125 3075.238281 1072.730469 C 2974.46875 1022.351562 2881.601562 1028.53125 2800.421875 1063.648438 C 2718.339844 1099.148438 2647.730469 1164.269531 2592.679688 1230.789062 C 2540.710938 1293.578125 2502.769531 1357.371094 2481.960938 1398.988281 C 2438.558594 1485.78125 2337.511719 1572.550781 2150.75 1582.925781 C 2014.421875 1590.5 1831.890625 1557.269531 1592.019531 1452.980469 C 1324.898438 1336.839844 1281.800781 1311.941406 1234.671875 1284.71875 C 1183.460938 1255.128906 1127.441406 1222.769531 765.445312 1064 C 450.109375 925.699219 417.6875 978.078125 341.011719 1101.949219 C 285.53125 1191.578125 208.101562 1316.570312 0.820312 1437.351562 L 0.820312 1410.71875 "/>
<path fill-rule="nonzero" fill="rgb(90.234375%, 90.234375%, 90.234375%)" fill-opacity="1" d="M 0.820312 1787.082031 C 240.835938 1756.304688 529.191406 1740.050781 882.632812 1744.414062 C 1176.699219 1748.042969 1457.339844 1752.59375 1723.960938 1757.304688 C 1407.898438 1684.386719 1108.929688 1621.535156 839.402344 1572.179688 C 668.832031 1581.199219 501.972656 1590.324219 339.964844 1599.792969 C 224.222656 1606.558594 111.03125 1613.492188 0.820312 1620.691406 L 0.820312 1597.8125 C 110.632812 1590.644531 223.40625 1583.734375 338.714844 1576.996094 C 469.746094 1569.339844 604.132812 1561.898438 741.195312 1554.550781 C 551.59375 1521.285156 378.253906 1495.328125 225.710938 1477.921875 C 151.644531 1490.46875 76.59375 1504.621094 0.820312 1520.25 L 0.820312 1496.949219 C 48.730469 1487.109375 96.359375 1477.851562 143.632812 1469.21875 C 93.386719 1464.289062 45.699219 1460.398438 0.820312 1457.621094 L 0.820312 1434.699219 C 69.28125 1438.910156 144.308594 1445.71875 225.121094 1454.921875 C 725.003906 1370.589844 1180.820312 1359.109375 1515.089844 1458.800781 C 1568.398438 1474.699219 1619.378906 1490.628906 1668.199219 1506.5625 C 1963.921875 1491.261719 2264.699219 1475.230469 2565.199219 1457.421875 C 2319.789062 1409.921875 2080.03125 1335.769531 1838.78125 1261.101562 C 1347.710938 1109.109375 850.351562 955.171875 286.570312 1022.800781 C 193.203125 1034.011719 98.042969 1051.261719 0.820312 1075.578125 L 0.820312 1052.070312 C 97.207031 1028.191406 191.472656 1011.191406 283.890625 1000.101562 C 852.355469 931.898438 1352.078125 1086.570312 1845.480469 1239.289062 C 2116.730469 1323.238281 2386.078125 1406.539062 2663.820312 1451.5 C 3026.78125 1429.488281 3388.410156 1404.699219 3739.25 1375.289062 C 3962.660156 1300.269531 4196.78125 1182.191406 4445.261719 1007.710938 L 4445.261719 1036.050781 C 4328.820312 1117.121094 4215.519531 1185.871094 4104.960938 1243.699219 C 4163.75 1244.261719 4268.710938 1259.609375 4445.261719 1290.570312 L 4445.261719 1330.320312 C 4338.089844 1342.171875 4229.128906 1353.410156 4118.640625 1364.078125 C 4126.230469 1376.320312 4133.730469 1389.460938 4140.550781 1403.511719 C 4185.941406 1497.050781 4199.800781 1626.597656 4008.921875 1779.605469 C 4171.839844 1775.785156 4317.519531 1769.296875 4445.261719 1759.324219 L 4445.261719 1781.808594 C 4309.25 1792.433594 4153.390625 1799.140625 3978.480469 1802.894531 C 3954.191406 1820.703125 3927.121094 1838.808594 3896.949219 1857.199219 C 4053.058594 1891.695312 4234.121094 1940.351562 4445.261719 2005.894531 L 4445.261719 2029.738281 C 4220.789062 1959.816406 4030.609375 1909.019531 3868.511719 1874.074219 C 3832.449219 1894.953125 3792.449219 1916.175781 3748.039062 1937.726562 C 3547.648438 2034.980469 3399.019531 2098.835938 3281.101562 2135.378906 C 3678.839844 2247.746094 4073.53125 2366.546875 4445.261719 2486.257812 L 4445.261719 2500.160156 L 4413.929688 2500.160156 C 4038.628906 2379.640625 3640.5 2260.152344 3239.898438 2147.382812 C 3041.578125 2201.179688 2933.519531 2169.820312 2795.460938 2087.867188 C 2635.871094 2269.460938 2453.640625 2459.296875 1748.878906 2392.367188 C 1848.589844 2428.46875 1939.140625 2464.445312 2018.96875 2500.160156 L 1968.96875 2500.160156 C 1878.328125 2461.390625 1774.929688 2422.265625 1660.839844 2382.96875 C 1570.960938 2372.390625 1473.308594 2357.980469 1366.828125 2339.191406 C 1239.71875 2316.761719 1136.53125 2297.355469 1050.050781 2281.097656 C 827.917969 2239.332031 717.386719 2218.550781 543.253906 2211.789062 C 417.585938 2206.910156 258.546875 2209.28125 0.820312 2216.300781 L 0.820312 2193.488281 C 258.726562 2186.46875 417.976562 2184.101562 544.058594 2188.996094 C 720.078125 2195.828125 831.109375 2216.707031 1054.25 2258.660156 C 1139.078125 2274.609375 1240.300781 2293.640625 1370.769531 2316.664062 C 1432.871094 2327.621094 1491.921875 2337.082031 1548.148438 2345.152344 C 1124.199219 2206.800781 577.511719 2067.167969 0.820312 1934.511719 L 0.820312 1911.546875 C 625.203125 2055.472656 1215.351562 2208.046875 1654.859375 2359.234375 C 2423.949219 2451.460938 2613.410156 2260.210938 2775.621094 2075.882812 C 2743.789062 2056.34375 2710.160156 2034.339844 2673.308594 2010.21875 C 2658.960938 2000.824219 2644.101562 1991.097656 2628.679688 1981.078125 C 2356.558594 1909.621094 2088.148438 1842.664062 1829.949219 1782 C 1531.828125 1776.621094 1215.640625 1771.324219 882.363281 1767.207031 C 528.585938 1762.839844 240.378906 1779.183594 0.820312 1810.097656 Z M 4445.261719 870.199219 C 4379.851562 866.351562 4308.691406 862.320312 4230.601562 857.898438 C 4026.070312 846.320312 3774.21875 832.058594 3455.339844 811.53125 C 3414.839844 808.929688 3373.238281 806.21875 3330.511719 803.398438 C 3321.519531 802.808594 3312.519531 802.210938 3303.53125 801.621094 L 3660.941406 801.621094 C 3886.589844 815.558594 4073.460938 826.140625 4231.851562 835.109375 C 4309.421875 839.5 4380.171875 843.511719 4445.261719 847.328125 Z M 157.804688 2500.160156 C 102.476562 2467.601562 51.675781 2440.414062 0.820312 2420.226562 L 0.820312 2382.238281 C 844.953125 2358.222656 1502.058594 2343.789062 1688.328125 2432.027344 C 1733.890625 2453.601562 1773.660156 2476.546875 1808.96875 2500.160156 L 1766.570312 2500.160156 C 1739.839844 2483.789062 1710.671875 2467.871094 1678.589844 2452.675781 C 1498.601562 2367.414062 854.101562 2380.851562 23.855469 2404.394531 C 80.757812 2428.707031 138.261719 2461.347656 202.460938 2500.160156 Z M 4105.441406 2500.160156 L 3979.171875 2500.160156 C 3781.441406 2468.664062 3588.488281 2463.558594 3404.050781 2500.160156 L 3305.640625 2500.160156 C 3558.75 2428.875 3828.46875 2442.324219 4105.441406 2500.160156 Z M 2790.980469 2058.402344 C 2799.128906 2049.101562 2807.28125 2039.847656 2815.449219 2030.664062 C 2776.511719 2020.210938 2737.628906 2009.855469 2698.800781 1999.578125 C 2731.738281 2021.128906 2762.101562 2040.84375 2790.980469 2058.402344 Z M 2832.519531 2011.703125 C 2916.378906 1919.808594 3009.488281 1838.300781 3182.449219 1804.566406 C 2929.21875 1801.910156 2652.898438 1797.140625 2354.878906 1791.671875 C 2470.46875 1853.136719 2561.558594 1910.269531 2638.410156 1960.140625 C 2702.941406 1977.085938 2767.660156 1994.273438 2832.519531 2011.703125 Z M 3620.078125 1806.746094 C 3693.769531 1816.757812 3774.808594 1830.992188 3864.410156 1850.082031 C 3891.191406 1834.386719 3915.609375 1818.925781 3937.871094 1803.714844 C 3837.898438 1805.574219 3731.910156 1806.527344 3620.078125 1806.746094 Z M 3834.808594 1867 C 3194.78125 1734.5625 3006.871094 1857.625 2857.378906 2018.417969 C 2984.390625 2052.648438 3111.800781 2087.703125 3238.96875 2123.464844 C 3360.769531 2090.210938 3517.488281 2024.242188 3738.121094 1917.164062 C 3773.089844 1900.199219 3805.238281 1883.472656 3834.808594 1867 Z M 2840.121094 2037.3125 C 2830.320312 2048.195312 2820.621094 2059.203125 2810.898438 2070.28125 C 2931.671875 2140.960938 3030.308594 2170.804688 3194.171875 2134.566406 C 3076.121094 2101.503906 2957.941406 2069.03125 2840.121094 2037.3125 Z M 1832.328125 1759.242188 C 1944.539062 1761.265625 2054.179688 1763.300781 2161.191406 1765.285156 L 2256.828125 1767.0625 C 2104.070312 1691.398438 1912.648438 1610.550781 1665.050781 1529.582031 C 1561.511719 1534.9375 1458.570312 1540.207031 1356.511719 1545.429688 C 1214.460938 1552.699219 1074.058594 1559.882812 935.925781 1567.105469 C 1211.121094 1619.335938 1513.898438 1684.46875 1832.328125 1759.242188 Z M 2160.839844 1788.082031 C 2087.320312 1786.71875 2012.558594 1785.328125 1936.589844 1783.9375 C 2141.929688 1832.972656 2353.070312 1885.777344 2566.808594 1941.429688 C 2493.890625 1895.460938 2408.398438 1844.589844 2303.710938 1790.730469 C 2256.640625 1789.859375 2209 1788.976562 2160.839844 1788.082031 Z M 2309.609375 1768.035156 C 2974.660156 1780.300781 3532.589844 1789.46875 3970.511719 1780.449219 C 4174.210938 1628.691406 4163.410156 1502.917969 4119.988281 1413.429688 C 4111.828125 1396.621094 4102.460938 1380.929688 4093.109375 1366.519531 C 3979.308594 1377.398438 3863.988281 1387.71875 3747.449219 1397.511719 C 3359.871094 1528.015625 3004.179688 1530.261719 2661.171875 1474.53125 C 2348.929688 1493.449219 2035.761719 1510.328125 1727.710938 1526.335938 C 1972.691406 1609.210938 2160.441406 1691.574219 2309.609375 1768.035156 Z M 4039.710938 1276.710938 C 3969.101562 1311.25 3899.609375 1341.390625 3831.128906 1367.460938 C 3914.351562 1360.25 3996.859375 1352.75 4078.621094 1344.96875 C 4076.289062 1341.589844 4074.011719 1338.308594 4071.789062 1335.121094 C 4055.25 1311.359375 4042.058594 1292.421875 4039.710938 1276.710938 Z M 2775.820312 1467.488281 C 3050.621094 1500.828125 3334.851562 1492.328125 3638.210938 1406.5 C 3355.441406 1429.371094 3066.359375 1449.378906 2775.820312 1467.488281 Z M 1508.570312 1480.699219 C 1195.078125 1387.210938 772.746094 1392.648438 307.019531 1464.738281 C 466.355469 1485.019531 645.722656 1513.636719 840.378906 1549.269531 C 1008.71875 1540.371094 1180.78125 1531.566406 1355.351562 1522.632812 C 1437.621094 1518.425781 1520.46875 1514.183594 1603.730469 1509.894531 C 1572.859375 1500.160156 1541.160156 1490.421875 1508.570312 1480.699219 Z M 4090.558594 1322.070312 C 4095.03125 1328.5 4099.769531 1335.300781 4104.621094 1342.488281 C 4212.738281 1332.089844 4319.421875 1321.160156 4424.398438 1309.648438 C 4146.929688 1260.28125 4065.851562 1251.289062 4062.199219 1271.121094 C 4060.710938 1279.191406 4073.539062 1297.621094 4090.558594 1322.070312 "/>
<path fill-rule="nonzero" fill="rgb(90.234375%, 90.234375%, 90.234375%)" fill-opacity="1" d="M 4445.261719 308.800781 C 4260.210938 198.121094 4184.648438 84.851562 4131.980469 0.160156 L 4105.148438 0.160156 C 4160.628906 89.78125 4238.078125 214.710938 4445.261719 335.429688 Z M 3538 0.160156 C 3292.761719 109.449219 3244.550781 137.300781 3199.980469 163.039062 C 3153.398438 189.949219 3110.808594 214.550781 2844.949219 330.140625 C 2608.738281 432.851562 2429.738281 465.609375 2296.589844 458.21875 C 2119.839844 448.398438 2024.878906 367.628906 1984.511719 286.890625 C 1963.070312 244.019531 1924.121094 178.46875 1871.011719 114.300781 C 1837.53125 73.839844 1798.351562 33.828125 1754.25 0.160156 L 1715.199219 0.160156 C 1768.050781 35.78125 1814.589844 81.980469 1853.398438 128.871094 C 1905.371094 191.671875 1943.320312 255.460938 1964.128906 297.078125 C 2007.519531 383.871094 2108.578125 470.640625 2295.339844 481.011719 C 2431.660156 488.589844 2614.199219 455.351562 2854.070312 351.058594 C 3121.191406 234.921875 3164.289062 210.03125 3211.421875 182.800781 C 3258.238281 155.75 3309.128906 126.359375 3594.21875 0.160156 Z M 1281.660156 0.160156 C 1275.128906 5.128906 1268.578125 10.320312 1262.011719 15.761719 C 1231.839844 40.730469 1197.289062 69.789062 1163.929688 97.859375 C 871.789062 343.601562 676.652344 507.738281 386.554688 378.808594 C 291.171875 336.421875 156.484375 307.261719 0.820312 289.28125 L 0.820312 312.191406 C 153.105469 329.898438 284.546875 358.390625 377.347656 399.640625 C 680.421875 534.339844 879.921875 366.519531 1178.589844 115.289062 C 1208.199219 90.378906 1238.851562 64.601562 1276.589844 33.371094 C 1291.5 21.019531 1306.261719 9.980469 1320.839844 0.160156 L 1281.660156 0.160156 "/>
<path fill-rule="nonzero" fill="rgb(90.234375%, 90.234375%, 90.234375%)" fill-opacity="1" d="M 4445.261719 685.171875 C 4205.25 654.390625 3916.890625 638.128906 3563.449219 642.5 C 3269.378906 646.128906 2988.75 650.679688 2722.128906 655.390625 C 3038.191406 582.46875 3337.148438 519.621094 3606.679688 470.261719 C 3777.25 479.289062 3944.109375 488.410156 4106.121094 497.878906 C 4221.859375 504.640625 4335.050781 511.578125 4445.261719 518.78125 L 4445.261719 495.898438 C 4335.449219 488.730469 4222.679688 481.820312 4107.371094 475.078125 C 3976.339844 467.421875 3841.949219 459.980469 3704.890625 452.628906 C 3894.488281 419.371094 4067.828125 393.410156 4220.371094 376.011719 C 4294.441406 388.558594 4369.488281 402.710938 4445.261719 418.339844 L 4445.261719 395.039062 C 4397.351562 385.191406 4349.730469 375.941406 4302.449219 367.308594 C 4352.699219 362.378906 4400.390625 358.480469 4445.261719 355.710938 L 4445.261719 332.78125 C 4376.800781 336.988281 4301.78125 343.808594 4220.960938 353.011719 C 3721.078125 268.679688 3265.261719 257.191406 2930.988281 356.890625 C 2877.691406 372.789062 2826.699219 388.71875 2777.878906 404.648438 C 2482.171875 389.351562 2181.390625 373.320312 1880.890625 355.5 C 2126.289062 308.011719 2366.050781 233.859375 2607.308594 159.179688 C 2790.128906 102.601562 2973.828125 45.75 3161.5 0.160156 L 3068.199219 0.160156 C 2910.429688 41.480469 2755.210938 89.519531 2600.601562 137.371094 C 2329.351562 221.328125 2060.011719 304.621094 1782.269531 349.589844 C 1419.308594 327.570312 1057.671875 302.78125 706.835938 273.371094 C 526.320312 212.761719 338.820312 124.03125 142.398438 0.160156 L 99.125 0.160156 C 181.296875 53.320312 261.914062 100.351562 341.121094 141.78125 C 282.328125 142.351562 177.375 157.691406 0.820312 188.660156 L 0.820312 228.410156 C 107.992188 240.261719 216.957031 251.5 327.441406 262.171875 C 319.851562 274.398438 312.359375 287.539062 305.539062 301.601562 C 260.144531 395.128906 246.285156 524.679688 437.160156 677.691406 C 274.242188 673.871094 128.570312 667.378906 0.820312 657.410156 L 0.820312 679.898438 C 136.832031 690.519531 292.691406 697.21875 467.601562 700.980469 C 491.894531 718.789062 518.960938 736.890625 549.132812 755.28125 C 393.019531 789.78125 211.964844 838.441406 0.820312 903.980469 L 0.820312 927.820312 C 225.296875 857.898438 415.476562 807.101562 577.570312 772.160156 C 613.632812 793.039062 653.636719 814.261719 698.039062 835.808594 C 898.4375 933.058594 1047.058594 996.921875 1164.980469 1033.460938 C 767.246094 1145.828125 372.550781 1264.628906 0.820312 1384.339844 L 0.820312 1418.921875 C 25.0625 1435.070312 47.90625 1451.128906 69.445312 1467.078125 C 46.597656 1473.789062 23.71875 1480.699219 0.820312 1487.800781 L 0.820312 1511.734375 C 31.332031 1502.234375 61.800781 1493.058594 92.210938 1484.269531 C 97.683594 1488.488281 103.070312 1492.691406 108.363281 1496.890625 C 251.84375 1610.644531 332.164062 1719.394531 383.9375 1818.121094 C 246.457031 1813.316406 121.078125 1822.613281 0.820312 1843.621094 L 0.820312 1867.207031 C 124.550781 1845.351562 253.660156 1835.972656 395.890625 1841.734375 C 424.738281 1900.808594 444.050781 1956.027344 461.613281 2006.257812 C 469.355469 2028.398438 476.777344 2049.570312 484.484375 2069.742188 L 482.375 2070.492188 C 317.070312 2129.183594 156.601562 2186.15625 0.820312 2239.511719 L 0.820312 2263.652344 C 159.015625 2209.535156 322.003906 2151.675781 489.972656 2092.035156 L 492.894531 2090.996094 C 583.242188 2310.574219 738.976562 2394.730469 1852.398438 2215.375 C 1986.960938 2268.316406 2099.488281 2317.199219 2198.710938 2360.296875 C 2289.011719 2399.523438 2368.328125 2433.972656 2443.238281 2462.410156 L 2396.808594 2471.023438 C 2344.261719 2480.777344 2291.710938 2490.53125 2239.011719 2500.160156 L 2364.820312 2500.160156 C 2376.859375 2497.925781 2388.890625 2495.695312 2400.929688 2493.460938 C 2429 2488.25 2457.078125 2483.039062 2485.179688 2477.84375 C 2507.808594 2485.890625 2530.128906 2493.34375 2552.339844 2500.160156 L 2640.691406 2500.160156 C 2604.140625 2491.695312 2567.949219 2481.375 2531.230469 2469.359375 C 2813.488281 2417.523438 3099.949219 2368.550781 3416.261719 2341.242188 C 3459.289062 2358.773438 3501.039062 2375.878906 3541.660156 2392.527344 L 3566.429688 2402.671875 C 3407.28125 2448.050781 3274.5 2479.980469 3159.460938 2500.160156 L 3277.320312 2500.160156 C 3372.519531 2479.359375 3479.039062 2451.753906 3600.488281 2416.613281 C 3641.738281 2433.492188 3681.851562 2449.84375 3721.019531 2465.640625 C 3682.179688 2477.582031 3643.511719 2489.082031 3605 2500.160156 L 3686.089844 2500.160156 C 3708.890625 2493.308594 3731.738281 2486.3125 3754.660156 2479.164062 C 3772.441406 2486.285156 3790.019531 2493.285156 3807.441406 2500.160156 L 3870.121094 2500.160156 C 3843.519531 2489.867188 3816.539062 2479.261719 3789.109375 2468.351562 C 3819.910156 2458.605469 3850.800781 2448.617188 3881.820312 2438.273438 C 4004.429688 2397.40625 4135.980469 2360.929688 4274.601562 2328.578125 C 4334.550781 2332.078125 4391.351562 2336.5 4445.261719 2341.78125 L 4445.261719 2318.839844 C 4415.339844 2315.933594 4384.550781 2313.285156 4352.828125 2310.910156 C 4383.328125 2304.253906 4414.148438 2297.785156 4445.261719 2291.503906 L 4445.261719 2268.296875 C 4386.71875 2280.066406 4329.210938 2292.5 4272.851562 2305.613281 C 4246.949219 2304.113281 4220.449219 2302.789062 4193.359375 2301.636719 C 4111.859375 2298.171875 4032.699219 2296.394531 3955.558594 2296.09375 C 4198.078125 2198.339844 4339.179688 2102.960938 4445.261719 2027.847656 L 4445.261719 1999.867188 C 4331.179688 2080.929688 4177.398438 2187.863281 3892.761719 2296.175781 C 3726.519531 2297.261719 3569.738281 2305.203125 3419.710938 2318.023438 C 3219.5 2236.5 2991.621094 2145.921875 2720.179688 2049.984375 C 3267.921875 1920.148438 3620.328125 1773.046875 3871.109375 1642.207031 C 3890.390625 1650.964844 3909.910156 1659.867188 3929.789062 1668.945312 C 4076.308594 1735.824219 4240.699219 1810.855469 4445.261719 1886.9375 L 4445.261719 1862.585938 C 4245 1787.75 4083.449219 1714.015625 3939.269531 1648.203125 C 3924.890625 1641.640625 3910.710938 1635.171875 3896.640625 1628.769531 C 4012.128906 1567.367188 4105.53125 1509.867188 4186.808594 1459.839844 C 4284.839844 1399.488281 4364.988281 1350.179688 4445.261719 1318.308594 L 4445.261719 1280.320312 C 3601.128906 1256.308594 2944.019531 1241.878906 2757.75 1330.109375 C 2683.679688 1365.199219 2624.890625 1403.898438 2575.691406 1443.210938 C 2476.058594 1460.351562 2367.691406 1482.871094 2248.738281 1511.375 C 2374.761719 1436.238281 2558.988281 1358.980469 2785.25 1281.050781 C 2875.128906 1270.46875 2972.78125 1256.070312 3079.25 1237.28125 C 3206.359375 1214.851562 3309.558594 1195.441406 3396.03125 1179.179688 C 3618.171875 1137.421875 3728.699219 1116.640625 3902.828125 1109.878906 C 4028.5 1105 4187.539062 1107.371094 4445.261719 1114.390625 L 4445.261719 1091.570312 C 4187.359375 1084.550781 4028.109375 1082.191406 3902.03125 1087.078125 C 3726.011719 1093.910156 3614.980469 1114.789062 3391.828125 1156.75 C 3307.011719 1172.691406 3205.789062 1191.730469 3075.320312 1214.75 C 3013.21875 1225.710938 2954.160156 1235.171875 2897.929688 1243.238281 C 3321.878906 1104.890625 3868.570312 965.25 4445.261719 832.601562 L 4445.261719 809.628906 C 3820.878906 953.558594 3230.738281 1106.128906 2791.230469 1257.320312 C 2022.128906 1349.550781 1832.679688 1158.300781 1670.460938 973.96875 C 1702.300781 954.429688 1735.929688 932.429688 1772.769531 908.300781 C 1787.121094 898.910156 1801.980469 889.179688 1817.398438 879.171875 C 2089.53125 807.710938 2357.929688 740.75 2616.140625 680.089844 C 2914.25 674.710938 3230.441406 669.410156 3563.71875 665.289062 C 3917.5 660.929688 4205.710938 677.269531 4445.261719 708.179688 Z M 0.820312 2439.878906 C 69.035156 2460.773438 137.464844 2480.890625 206.144531 2500.160156 L 292.785156 2500.160156 C 194.96875 2473.789062 97.679688 2445.632812 0.820312 2415.914062 Z M 1650.628906 985.949219 C 1810.21875 1167.550781 1992.441406 1357.378906 2697.199219 1290.449219 C 2476.929688 1370.210938 2301.359375 1449.351562 2187.210938 1526.433594 C 2114.890625 1544.449219 2038.898438 1564.519531 1958.621094 1586.894531 C 1883.800781 1607.746094 1809.769531 1629.121094 1736.53125 1650.90625 C 1626.398438 1608.417969 1495.28125 1550.230469 1337.339844 1473.191406 C 958.300781 1288.289062 533.050781 1334.238281 96.914062 1459.121094 C 72.292969 1440.449219 45.996094 1421.679688 17.886719 1402.828125 C 397.355469 1280.761719 800.5 1159.671875 1206.179688 1045.46875 C 1404.5 1099.269531 1512.570312 1067.910156 1650.628906 985.949219 Z M 1655.109375 956.488281 C 1646.949219 947.191406 1638.808594 937.929688 1630.628906 928.75 C 1669.570312 918.300781 1708.460938 907.941406 1747.289062 897.660156 C 1714.339844 919.210938 1683.980469 938.929688 1655.109375 956.488281 Z M 1613.558594 909.789062 C 1529.699219 817.890625 1436.601562 736.390625 1263.628906 702.648438 C 1516.859375 700 1793.179688 695.21875 2091.199219 689.761719 C 1975.621094 751.21875 1884.519531 808.359375 1807.679688 858.21875 C 1743.148438 875.171875 1678.421875 892.359375 1613.558594 909.789062 Z M 826.003906 704.828125 C 752.3125 714.839844 671.269531 729.078125 581.675781 748.171875 C 554.894531 732.46875 530.46875 717.011719 508.210938 701.800781 C 608.183594 703.660156 714.179688 704.609375 826.003906 704.828125 Z M 611.277344 765.078125 C 1251.300781 632.648438 1439.21875 755.710938 1588.699219 916.5 C 1461.691406 950.730469 1334.289062 985.789062 1207.109375 1021.550781 C 1085.308594 988.300781 928.597656 922.328125 707.960938 815.25 C 672.996094 798.28125 640.839844 781.558594 611.277344 765.078125 Z M 1605.960938 935.398438 C 1615.761719 946.28125 1625.46875 957.289062 1635.191406 968.371094 C 1514.421875 1039.050781 1415.78125 1068.890625 1251.921875 1032.648438 C 1369.960938 999.589844 1488.140625 967.121094 1605.960938 935.398438 Z M 122.578125 1479.011719 L 119.398438 1476.5 C 545.367188 1356.46875 959.609375 1314.371094 1327.320312 1493.75 C 1472.628906 1564.625 1595.730469 1619.769531 1700.980469 1661.535156 C 1443.191406 1738.953125 1195.199219 1821.289062 956.542969 1903.710938 C 750.261719 1853.851562 571.785156 1826.917969 410.289062 1819.246094 C 357.71875 1715.269531 275.125 1599.953125 122.578125 1479.011719 Z M 483.15625 1998.75 C 466.4375 1950.929688 448.152344 1898.671875 421.851562 1842.914062 C 569.539062 1850.71875 731.636719 1874.714844 916.339844 1917.625 C 776.371094 1966.171875 639.640625 2014.65625 506.046875 2062.085938 C 498.300781 2042.015625 490.898438 2020.882812 483.15625 1998.75 Z M 1896.261719 2208.253906 C 1996.800781 2191.8125 2104.738281 2173.34375 2221.078125 2152.664062 C 2387.089844 2123.148438 2539.210938 2091.972656 2678.929688 2059.65625 C 2946.21875 2153.3125 3171.738281 2242.050781 3370.058594 2322.464844 C 3055.558594 2351.839844 2769.921875 2402.0625 2487.28125 2454.261719 C 2402.039062 2423.773438 2312.328125 2384.816406 2207.730469 2339.378906 C 2117.179688 2300.046875 2015.550781 2255.902344 1896.261719 2208.253906 Z M 2217.140625 2130.136719 C 2086.101562 2153.433594 1965.769531 2173.929688 1854.859375 2191.867188 C 1672.121094 2120.148438 1448.960938 2041.066406 1163.820312 1958.8125 C 1106.339844 1942.230469 1050.949219 1927.269531 997.390625 1913.789062 C 1234.269531 1832.292969 1480.21875 1751.128906 1735.570312 1675.007812 C 1866.621094 1725.203125 1968.628906 1753.453125 2050.691406 1764.636719 C 2081.980469 1831.671875 2180.289062 1894.582031 2358.648438 1952.019531 C 2456.710938 1983.597656 2549.730469 2014.789062 2638.25 2045.480469 C 2508.738281 2074.816406 2368.800781 2103.175781 2217.140625 2130.136719 Z M 1810.429688 2199.015625 C 754.53125 2366.992188 600.578125 2288.203125 514.585938 2083.296875 C 658.625 2032.160156 806.3125 1979.800781 957.726562 1927.46875 C 1021.550781 1942.976562 1088.019531 1960.652344 1157.570312 1980.714844 C 1423.261719 2057.359375 1635.050781 2131.273438 1810.429688 2199.015625 Z M 4174.828125 1440.351562 C 4090.28125 1492.390625 3992.519531 1552.558594 3870.28125 1616.789062 C 3493.378906 1445.921875 3217.730469 1340.878906 2624.011719 1435.210938 C 2664.699219 1405.808594 2711.679688 1377.199219 2767.488281 1350.761719 C 2947.488281 1265.5 3591.980469 1278.941406 4422.230469 1302.480469 C 4345.769531 1335.140625 4268.238281 1382.851562 4174.828125 1440.351562 Z M 3844.570312 1630.1875 C 3590.679688 1761.035156 3233.601562 1907.367188 2680.101562 2035.890625 C 2581.21875 2001.300781 2476.640625 1966.046875 2365.628906 1930.296875 C 2204.960938 1878.558594 2112.738281 1824.140625 2078.269531 1767.8125 C 2269.378906 1785.855469 2346.480469 1704.214844 2447.511719 1597.066406 C 2486.820312 1555.371094 2529.878906 1509.710938 2585.339844 1464.800781 C 3193.460938 1361.371094 3471.351562 1461.671875 3844.570312 1630.1875 Z M 2613.75 657.328125 C 2501.539062 659.351562 2391.910156 661.390625 2284.890625 663.371094 L 2189.25 665.148438 C 2342.011719 589.480469 2533.441406 508.640625 2781.03125 427.671875 C 2884.578125 433.019531 2987.511719 438.289062 3089.570312 443.511719 C 3231.628906 450.78125 3372.019531 457.96875 3510.160156 465.191406 C 3234.960938 517.421875 2932.191406 582.558594 2613.75 657.328125 Z M 2285.25 686.171875 C 2358.769531 684.800781 2433.519531 683.421875 2509.488281 682.019531 C 2304.148438 731.058594 2093.011719 783.859375 1879.28125 839.519531 C 1952.199219 793.550781 2037.691406 742.671875 2142.378906 688.808594 C 2189.449219 687.949219 2237.089844 687.058594 2285.25 686.171875 Z M 2136.46875 666.121094 C 1471.421875 678.390625 913.488281 687.550781 475.574219 678.539062 C 271.878906 526.78125 282.671875 401 326.097656 311.519531 C 334.253906 294.710938 343.625 279.019531 352.972656 264.601562 C 466.777344 275.488281 582.09375 285.800781 698.636719 295.589844 C 1086.210938 426.101562 1441.910156 428.351562 1784.921875 372.609375 C 2097.160156 391.53125 2410.320312 408.410156 2718.378906 424.421875 C 2473.398438 507.300781 2285.640625 589.660156 2136.46875 666.121094 Z M 406.378906 174.800781 C 476.980469 209.339844 546.476562 239.46875 614.957031 265.550781 C 531.738281 258.339844 449.226562 250.839844 367.464844 243.050781 C 369.792969 239.679688 372.078125 236.390625 374.296875 233.210938 C 390.835938 209.449219 404.019531 190.5 406.378906 174.800781 Z M 1670.261719 365.570312 C 1395.460938 398.921875 1111.230469 390.421875 807.871094 304.589844 C 1090.648438 327.449219 1379.730469 347.46875 1670.261719 365.570312 Z M 2540.589844 1472.679688 C 2498.328125 1509.894531 2463.351562 1546.988281 2430.878906 1581.425781 C 2332.800781 1685.4375 2258.28125 1764.453125 2066.839844 1743.050781 C 2060.851562 1723.953125 2061.160156 1704.65625 2067.429688 1685.179688 C 2081.640625 1641.054688 2123.921875 1595.632812 2189.921875 1549.28125 C 2318.070312 1517.308594 2434.289062 1491.980469 2540.589844 1472.679688 Z M 2042.191406 1739.796875 C 1970 1729.078125 1882.011719 1705.039062 1771.820312 1664.253906 C 1835.53125 1645.445312 1899.820312 1626.964844 1964.699219 1608.882812 C 2024.988281 1592.082031 2082.789062 1576.617188 2138.5 1562.304688 C 2089.789062 1601.613281 2057.910156 1640.324219 2045.710938 1678.207031 C 2039 1699.0625 2037.71875 1719.605469 2042.191406 1739.796875 Z M 3617.621094 2387.902344 C 3612.28125 2389.464844 3607.050781 2390.96875 3601.78125 2392.496094 C 3584.820312 2385.554688 3567.710938 2378.546875 3550.339844 2371.429688 C 3522.921875 2360.195312 3494.988281 2348.753906 3466.511719 2337.113281 C 3582.699219 2328.035156 3703.011719 2321.949219 3828.679688 2319.765625 C 3764.691406 2342.570312 3694.640625 2365.359375 3617.621094 2387.902344 Z M 3635.660156 2406.347656 C 3733.398438 2377.449219 3819.921875 2348.160156 3897 2318.960938 C 3992.21875 2318.402344 4090.53125 2320.09375 4192.46875 2324.433594 L 4194.351562 2324.519531 C 4082.46875 2352.367188 3975.550781 2383.015625 3874.671875 2416.640625 C 3834.828125 2429.921875 3795.179688 2442.703125 3755.710938 2455.007812 C 3716.679688 2439.355469 3676.71875 2423.121094 3635.660156 2406.347656 Z M 2937.519531 378.789062 C 3251.011719 285.289062 3673.339844 290.730469 4139.058594 362.820312 C 3979.730469 383.101562 3800.359375 411.71875 3605.699219 447.359375 C 3437.371094 438.460938 3265.308594 429.648438 3090.730469 420.71875 C 3008.460938 416.511719 2925.621094 412.269531 2842.351562 407.980469 C 2873.230469 398.238281 2904.929688 388.511719 2937.519531 378.789062 Z M 355.523438 220.148438 C 351.050781 226.578125 346.3125 233.390625 341.464844 240.570312 C 233.347656 230.179688 126.664062 219.25 21.683594 207.730469 C 299.160156 158.359375 380.234375 149.371094 383.886719 169.210938 C 385.371094 177.28125 372.542969 195.710938 355.523438 220.148438 "/>
</svg>
